STARTFONT 2.1
COMMENT /*
COMMENT  * Spleen 16x32 2.0.2
COMMENT  * Copyright (c) 2018-2023, Frederic Cambus
COMMENT  * https://www.cambus.net/
COMMENT  *
COMMENT  * Created:      2018-08-12
COMMENT  * Last Updated: 2023-05-26
COMMENT  *
COMMENT  * Spleen is released under the BSD 2-Clause license.
COMMENT  * See LICENSE file for details.
COMMENT  *
COMMENT  * SPDX-License-Identifier: BSD-2-Clause
COMMENT  */
FONT -misc-spleen-medium-r-normal--32-320-72-72-C-160-ibm-437
SIZE 32 72 72
FONTBOUNDINGBOX 16 32 0 -6
STARTPROPERTIES 20
FAMILY_NAME "Spleen"
WEIGHT_NAME "Medium"
FONT_VERSION "2.0.2"
FOUNDRY "misc"
SLANT "R"
SETWIDTH_NAME "Normal"
PIXEL_SIZE 32
POINT_SIZE 320
RESOLUTION_X 72
RESOLUTION_Y 72
SPACING "C"
AVERAGE_WIDTH 160
CHARSET_REGISTRY "ibm"
CHARSET_ENCODING "437"
MIN_SPACE 16
FONT_ASCENT 26
FONT_DESCENT 6
COPYRIGHT "Copyright (c) 2018-2023, Frederic Cambus"
DEFAULT_CHAR 32
_GBDFED_INFO "Edited with gbdfed 1.6."
ENDPROPERTIES
CHARS 256
STARTCHAR <control>
ENCODING 0
SWIDTH 500 0
DWIDTH 16 0
BBX 16 32 0 -6
BITMAP
0000
0000
0000
0000
0000
0000
0000
0000
0000
0000
0000
0000
0000
0000
0000
0000
0000
0000
0000
0000
0000
0000
0000
0000
0000
0000
0000
0000
0000
0000
0000
0000
ENDCHAR
STARTCHAR <control>
ENCODING 1
SWIDTH 500 0
DWIDTH 16 0
BBX 16 32 0 -6
BITMAP
0000
0000
0000
0000
0000
0000
1FF8
3FFC
700E
6006
6006
6C36
6C36
6006
6006
6006
6006
6C36
6E76
67E6
63C6
6006
6006
700E
3FFC
1FF8
0000
0000
0000
0000
0000
0000
ENDCHAR
STARTCHAR <control>
ENCODING 2
SWIDTH 500 0
DWIDTH 16 0
BBX 16 32 0 -6
BITMAP
0000
0000
0000
0000
0000
0000
1FF8
3FFC
7FFE
7FFE
7FFE
73CE
73CE
7FFE
7FFE
7FFE
7FFE
73CE
718E
781E
7C3E
7FFE
7FFE
7FFE
3FFC
1FF8
0000
0000
0000
0000
0000
0000
ENDCHAR
STARTCHAR <control>
ENCODING 3
SWIDTH 500 0
DWIDTH 16 0
BBX 16 32 0 -6
BITMAP
0000
0000
0000
0000
0000
0000
0000
0000
0000
3C78
7EFC
FFFE
FFFE
FFFE
FFFE
FFFE
7FFC
7FFC
3FF8
1FF0
0FE0
07C0
0380
0100
0000
0000
0000
0000
0000
0000
0000
0000
ENDCHAR
STARTCHAR <control>
ENCODING 4
SWIDTH 500 0
DWIDTH 16 0
BBX 16 32 0 -6
BITMAP
0000
0000
0000
0000
0000
0000
0000
0000
0000
0100
0380
07C0
0FE0
1FF0
3FF8
7FFC
FFFE
7FFC
3FF8
1FF0
0FE0
07C0
0380
0100
0000
0000
0000
0000
0000
0000
0000
0000
ENDCHAR
STARTCHAR <control>
ENCODING 5
SWIDTH 500 0
DWIDTH 16 0
BBX 16 32 0 -6
BITMAP
0000
0000
0000
0000
0000
0000
0000
03C0
07E0
0FF0
0FF0
0FF0
07E0
3E7C
7C3E
7C3E
7C3E
7E7E
3DBC
0180
0180
0180
0180
0FF0
0FF0
0000
0000
0000
0000
0000
0000
0000
ENDCHAR
STARTCHAR <control>
ENCODING 6
SWIDTH 500 0
DWIDTH 16 0
BBX 16 32 0 -6
BITMAP
0000
0000
0000
0000
0000
0000
0000
0180
03C0
07E0
0FF0
1FF8
3FFC
7FFE
7FFE
7FFE
7FFE
3FFC
1FF8
0180
0180
0180
0180
0FF0
0FF0
0000
0000
0000
0000
0000
0000
0000
ENDCHAR
STARTCHAR <control>
ENCODING 7
SWIDTH 500 0
DWIDTH 16 0
BBX 16 32 0 -6
BITMAP
0000
0000
0000
0000
0000
0000
0000
0000
0000
0000
0000
0000
0000
03C0
07E0
07E0
07E0
07E0
03C0
0000
0000
0000
0000
0000
0000
0000
0000
0000
0000
0000
0000
0000
ENDCHAR
STARTCHAR <control>
ENCODING 8
SWIDTH 500 0
DWIDTH 16 0
BBX 16 32 0 -6
BITMAP
FFFF
FFFF
FFFF
FFFF
FFFF
FFFF
FFFF
FFFF
FFFF
FFFF
FFFF
FFFF
FFFF
FC3F
F81F
F81F
F81F
F81F
FC3F
FFFF
FFFF
FFFF
FFFF
FFFF
FFFF
FFFF
FFFF
FFFF
FFFF
FFFF
FFFF
FFFF
ENDCHAR
STARTCHAR <control>
ENCODING 9
SWIDTH 500 0
DWIDTH 16 0
BBX 16 32 0 -6
BITMAP
0000
0000
0000
0000
0000
0000
0000
0000
0000
0000
0000
0000
03C0
07E0
0E70
0C30
0C30
0E70
07E0
03C0
0000
0000
0000
0000
0000
0000
0000
0000
0000
0000
0000
0000
ENDCHAR
STARTCHAR <control>
ENCODING 10
SWIDTH 500 0
DWIDTH 16 0
BBX 16 32 0 -6
BITMAP
FFFF
FFFF
FFFF
FFFF
FFFF
FFFF
FFFF
FFFF
FFFF
FFFF
FFFF
FFFF
FC3F
F81F
F18F
F3CF
F3CF
F18F
F81F
FC3F
FFFF
FFFF
FFFF
FFFF
FFFF
FFFF
FFFF
FFFF
FFFF
FFFF
FFFF
FFFF
ENDCHAR
STARTCHAR <control>
ENCODING 11
SWIDTH 500 0
DWIDTH 16 0
BBX 16 32 0 -6
BITMAP
0000
0000
0000
0000
0000
0000
01FE
01FE
003E
0076
00E6
01C6
0386
0706
0FC0
1FE0
3870
3030
3030
3030
3030
3030
3030
3870
1FE0
0FC0
0000
0000
0000
0000
0000
0000
ENDCHAR
STARTCHAR <control>
ENCODING 12
SWIDTH 500 0
DWIDTH 16 0
BBX 16 32 0 -6
BITMAP
0000
0000
0000
0000
0000
0000
07E0
0FF0
1C38
1818
1818
1818
1818
1818
1818
1C38
0FF0
07E0
0180
0180
0FF0
0FF0
0180
0180
0180
0180
0000
0000
0000
0000
0000
0000
ENDCHAR
STARTCHAR <control>
ENCODING 13
SWIDTH 500 0
DWIDTH 16 0
BBX 16 32 0 -6
BITMAP
0000
0000
0000
0000
000C
003C
00FC
03CC
0F0C
0C3C
0CF0
0FC0
0F00
0C00
0C00
0C00
0C00
0C00
0C00
0C00
0C00
1C00
7C00
FC00
F800
6000
0000
0000
0000
0000
0000
0000
ENDCHAR
STARTCHAR <control>
ENCODING 14
SWIDTH 500 0
DWIDTH 16 0
BBX 16 32 0 -6
BITMAP
0000
0000
0000
0000
000C
003C
00FC
03CC
0F0C
0C3C
0CFC
0FCC
0F0C
0C0C
0C0C
0C0C
0C0C
0C0C
0C0C
0C1C
0C7C
0CFC
0CF8
1C60
7C00
FC00
F800
6000
0000
0000
0000
0000
ENDCHAR
STARTCHAR <control>
ENCODING 15
SWIDTH 500 0
DWIDTH 16 0
BBX 16 32 0 -6
BITMAP
0000
0000
0000
0000
0000
0000
0000
0180
0180
0180
318C
399C
1DB8
0FF0
07E0
7E7E
7E7E
07E0
0FF0
1DB8
399C
318C
0180
0180
0180
0000
0000
0000
0000
0000
0000
0000
ENDCHAR
STARTCHAR <control>
ENCODING 16
SWIDTH 500 0
DWIDTH 16 0
BBX 16 32 0 -6
BITMAP
8000
C000
E000
F000
F800
FC00
FE00
FF00
FF80
FFC0
FFE0
FFF0
FFF8
FFFC
FFFE
FFFF
FFFF
FFFE
FFFC
FFF8
FFF0
FFE0
FFC0
FF80
FF00
FE00
FC00
F800
F000
E000
C000
8000
ENDCHAR
STARTCHAR <control>
ENCODING 17
SWIDTH 500 0
DWIDTH 16 0
BBX 16 32 0 -6
BITMAP
0001
0003
0007
000F
001F
003F
007F
00FF
01FF
03FF
07FF
0FFF
1FFF
3FFF
7FFF
FFFF
FFFF
7FFF
3FFF
1FFF
0FFF
07FF
03FF
01FF
00FF
007F
003F
001F
000F
0007
0003
0001
ENDCHAR
STARTCHAR <control>
ENCODING 18
SWIDTH 500 0
DWIDTH 16 0
BBX 16 32 0 -6
BITMAP
0000
0000
0000
0000
0000
0000
0180
03C0
07E0
0FF0
1FF8
0180
0180
0180
0180
0180
0180
0180
0180
0180
0180
1FF8
0FF0
07E0
03C0
0180
0000
0000
0000
0000
0000
0000
ENDCHAR
STARTCHAR <control>
ENCODING 19
SWIDTH 500 0
DWIDTH 16 0
BBX 16 32 0 -6
BITMAP
0000
0000
0000
0000
0000
0000
0C30
0C30
0C30
0C30
0C30
0C30
0C30
0C30
0C30
0C30
0C30
0C30
0C30
0C30
0000
0000
0000
0C30
0C30
0C30
0000
0000
0000
0000
0000
0000
ENDCHAR
STARTCHAR <control>
ENCODING 20
SWIDTH 500 0
DWIDTH 16 0
BBX 16 32 0 -6
BITMAP
0000
0000
0000
0000
0000
0000
0FFC
1FFC
398C
318C
318C
318C
318C
398C
1F8C
0F8C
018C
018C
018C
018C
018C
018C
018C
018C
018C
018C
0000
0000
0000
0000
0000
0000
ENDCHAR
STARTCHAR <control>
ENCODING 21
SWIDTH 500 0
DWIDTH 16 0
BBX 16 32 0 -6
BITMAP
0000
0000
0000
0000
07E0
0FF0
1C70
1800
1800
1C00
0E00
07E0
0FF0
1C38
1818
1818
1818
1818
1C38
0FF0
07E0
0070
0038
0018
0018
0E38
0FF0
07E0
0000
0000
0000
0000
ENDCHAR
STARTCHAR <control>
ENCODING 22
SWIDTH 500 0
DWIDTH 16 0
BBX 16 32 0 -6
BITMAP
0000
0000
0000
0000
0000
0000
0000
0000
0000
0000
0000
0000
0000
0000
0000
0000
0000
0000
7FFE
7FFE
7FFE
7FFE
7FFE
7FFE
7FFE
7FFE
0000
0000
0000
0000
0000
0000
ENDCHAR
STARTCHAR <control>
ENCODING 23
SWIDTH 500 0
DWIDTH 16 0
BBX 16 32 0 -6
BITMAP
0000
0000
0000
0000
0000
0000
0180
03C0
07E0
0FF0
1FF8
0180
0180
0180
0180
0180
0180
0180
0180
0180
0180
1FF8
0FF0
07E0
03C0
0180
1FF8
1FF8
0000
0000
0000
0000
ENDCHAR
STARTCHAR <control>
ENCODING 24
SWIDTH 500 0
DWIDTH 16 0
BBX 16 32 0 -6
BITMAP
0000
0000
0000
0000
0000
0000
0180
03C0
07E0
0FF0
1FF8
0180
0180
0180
0180
0180
0180
0180
0180
0180
0180
0180
0180
0180
0180
0180
0000
0000
0000
0000
0000
0000
ENDCHAR
STARTCHAR <control>
ENCODING 25
SWIDTH 500 0
DWIDTH 16 0
BBX 16 32 0 -6
BITMAP
0000
0000
0000
0000
0000
0000
0180
0180
0180
0180
0180
0180
0180
0180
0180
0180
0180
0180
0180
0180
0180
1FF8
0FF0
07E0
03C0
0180
0000
0000
0000
0000
0000
0000
ENDCHAR
STARTCHAR <control>
ENCODING 26
SWIDTH 500 0
DWIDTH 16 0
BBX 16 32 0 -6
BITMAP
0000
0000
0000
0000
0000
0000
0000
0000
0000
0000
0000
0000
0060
0070
0038
001C
7FFE
7FFE
001C
0038
0070
0060
0000
0000
0000
0000
0000
0000
0000
0000
0000
0000
ENDCHAR
STARTCHAR <control>
ENCODING 27
SWIDTH 500 0
DWIDTH 16 0
BBX 16 32 0 -6
BITMAP
0000
0000
0000
0000
0000
0000
0000
0000
0000
0000
0000
0000
0600
0E00
1C00
3800
7FFE
7FFE
3800
1C00
0E00
0600
0000
0000
0000
0000
0000
0000
0000
0000
0000
0000
ENDCHAR
STARTCHAR <control>
ENCODING 28
SWIDTH 500 0
DWIDTH 16 0
BBX 16 32 0 -6
BITMAP
0000
0000
0000
0000
0000
0000
0000
0000
0000
0000
0000
0000
3000
3000
3000
3000
3000
3000
3FFC
3FFC
0000
0000
0000
0000
0000
0000
0000
0000
0000
0000
0000
0000
ENDCHAR
STARTCHAR <control>
ENCODING 29
SWIDTH 500 0
DWIDTH 16 0
BBX 16 32 0 -6
BITMAP
0000
0000
0000
0000
0000
0000
0000
0000
0000
0000
0000
0000
0420
0C30
1C38
3C3C
7FFE
7FFE
3C3C
1C38
0C30
0420
0000
0000
0000
0000
0000
0000
0000
0000
0000
0000
ENDCHAR
STARTCHAR <control>
ENCODING 30
SWIDTH 500 0
DWIDTH 16 0
BBX 16 32 0 -6
BITMAP
0000
0000
0000
0000
0000
0000
0000
0000
0000
0000
0180
03C0
07E0
07E0
0FF0
0FF0
1FF8
1FF8
3FFC
3FFC
7FFE
7FFE
7FFE
7FFE
0000
0000
0000
0000
0000
0000
0000
0000
ENDCHAR
STARTCHAR <control>
ENCODING 31
SWIDTH 500 0
DWIDTH 16 0
BBX 16 32 0 -6
BITMAP
0000
0000
0000
0000
0000
0000
0000
0000
0000
0000
7FFE
7FFE
7FFE
7FFE
3FFC
3FFC
1FF8
1FF8
0FF0
0FF0
07E0
07E0
03C0
0180
0000
0000
0000
0000
0000
0000
0000
0000
ENDCHAR
STARTCHAR defaultchar
ENCODING 32
SWIDTH 500 0
DWIDTH 16 0
BBX 16 32 0 -6
BITMAP
0000
0000
0000
0000
0000
0000
0000
0000
0000
0000
0000
0000
0000
0000
0000
0000
0000
0000
0000
0000
0000
0000
0000
0000
0000
0000
0000
0000
0000
0000
0000
0000
ENDCHAR
STARTCHAR EXCLAMATION MARK
ENCODING 33
SWIDTH 500 0
DWIDTH 16 0
BBX 16 32 0 -6
BITMAP
0000
0000
0000
0000
0000
0000
0180
0180
0180
0180
0180
0180
0180
0180
0180
0180
0180
0180
0180
0180
0000
0000
0000
0180
0180
0180
0000
0000
0000
0000
0000
0000
ENDCHAR
STARTCHAR QUOTATION MARK
ENCODING 34
SWIDTH 500 0
DWIDTH 16 0
BBX 16 32 0 -6
BITMAP
0000
0000
0000
0000
1818
1818
1818
1818
1818
1818
1818
1818
0000
0000
0000
0000
0000
0000
0000
0000
0000
0000
0000
0000
0000
0000
0000
0000
0000
0000
0000
0000
ENDCHAR
STARTCHAR NUMBER SIGN
ENCODING 35
SWIDTH 500 0
DWIDTH 16 0
BBX 16 32 0 -6
BITMAP
0000
0000
0000
0000
0000
0000
1818
1818
1818
1818
7FFE
7FFE
1818
1818
1818
1818
1818
1818
1818
1818
7FFE
7FFE
1818
1818
1818
1818
0000
0000
0000
0000
0000
0000
ENDCHAR
STARTCHAR DOLLAR SIGN
ENCODING 36
SWIDTH 500 0
DWIDTH 16 0
BBX 16 32 0 -6
BITMAP
0000
0000
0000
0000
0180
0180
0FFC
1FFC
3980
3180
3180
3180
3180
3980
1FF0
0FF8
019C
018C
018C
018C
018C
018C
018C
019C
3FF8
3FF0
0180
0180
0000
0000
0000
0000
ENDCHAR
STARTCHAR PERCENT SIGN
ENCODING 37
SWIDTH 500 0
DWIDTH 16 0
BBX 16 32 0 -6
BITMAP
0000
0000
0000
0000
0000
0000
000C
0E0C
1B18
1B18
1B30
0E30
0060
0060
00C0
00C0
0180
0180
0300
0300
0638
066C
0C6C
0C6C
1838
1800
0000
0000
0000
0000
0000
0000
ENDCHAR
STARTCHAR AMPERSAND
ENCODING 38
SWIDTH 500 0
DWIDTH 16 0
BBX 16 32 0 -6
BITMAP
0000
0000
0000
0000
0000
0000
07E0
0FF0
1C38
1818
1818
1818
1818
1C38
0FF0
07E0
1F80
3FC0
70EC
607C
6038
6030
6038
707C
3FEE
1FC6
0000
0000
0000
0000
0000
0000
ENDCHAR
STARTCHAR APOSTROPHE
ENCODING 39
SWIDTH 500 0
DWIDTH 16 0
BBX 16 32 0 -6
BITMAP
0000
0000
0000
0000
0180
0180
0180
0180
0180
0180
0180
0180
0000
0000
0000
0000
0000
0000
0000
0000
0000
0000
0000
0000
0000
0000
0000
0000
0000
0000
0000
0000
ENDCHAR
STARTCHAR LEFT PARENTHESIS
ENCODING 40
SWIDTH 500 0
DWIDTH 16 0
BBX 16 32 0 -6
BITMAP
0000
0000
0000
003C
00FC
01E0
0380
0700
0600
0E00
0C00
1C00
1800
1800
1800
1800
1800
1800
1800
1800
1C00
0C00
0E00
0600
0700
0380
01E0
00FC
003C
0000
0000
0000
ENDCHAR
STARTCHAR RIGHT PARENTHESIS
ENCODING 41
SWIDTH 500 0
DWIDTH 16 0
BBX 16 32 0 -6
BITMAP
0000
0000
0000
3C00
3F00
0780
01C0
00E0
0060
0070
0030
0038
0018
0018
0018
0018
0018
0018
0018
0018
0038
0030
0070
0060
00E0
01C0
0780
3F00
3C00
0000
0000
0000
ENDCHAR
STARTCHAR ASTERISK
ENCODING 42
SWIDTH 500 0
DWIDTH 16 0
BBX 16 32 0 -6
BITMAP
0000
0000
0000
0000
0000
0000
0000
0000
0000
0000
1818
1C38
0E70
07E0
03C0
03C0
7FFE
7FFE
03C0
03C0
07E0
0E70
1C38
1818
0000
0000
0000
0000
0000
0000
0000
0000
ENDCHAR
STARTCHAR PLUS SIGN
ENCODING 43
SWIDTH 500 0
DWIDTH 16 0
BBX 16 32 0 -6
BITMAP
0000
0000
0000
0000
0000
0000
0000
0000
0000
0000
0000
0000
0180
0180
0180
0180
1FF8
1FF8
0180
0180
0180
0180
0000
0000
0000
0000
0000
0000
0000
0000
0000
0000
ENDCHAR
STARTCHAR COMMA
ENCODING 44
SWIDTH 500 0
DWIDTH 16 0
BBX 16 32 0 -6
BITMAP
0000
0000
0000
0000
0000
0000
0000
0000
0000
0000
0000
0000
0000
0000
0000
0000
0000
0000
0000
0000
0000
0000
0180
0180
0180
0380
0700
0600
0000
0000
0000
0000
ENDCHAR
STARTCHAR HYPHEN-MINUS
ENCODING 45
SWIDTH 500 0
DWIDTH 16 0
BBX 16 32 0 -6
BITMAP
0000
0000
0000
0000
0000
0000
0000
0000
0000
0000
0000
0000
0000
0000
0000
0000
3FFC
3FFC
0000
0000
0000
0000
0000
0000
0000
0000
0000
0000
0000
0000
0000
0000
ENDCHAR
STARTCHAR FULL STOP
ENCODING 46
SWIDTH 500 0
DWIDTH 16 0
BBX 16 32 0 -6
BITMAP
0000
0000
0000
0000
0000
0000
0000
0000
0000
0000
0000
0000
0000
0000
0000
0000
0000
0000
0000
0000
0000
0000
0000
0180
0180
0180
0000
0000
0000
0000
0000
0000
ENDCHAR
STARTCHAR SOLIDUS
ENCODING 47
SWIDTH 500 0
DWIDTH 16 0
BBX 16 32 0 -6
BITMAP
0000
0000
0000
0006
0006
000C
000C
0018
0018
0030
0030
0060
0060
00C0
00C0
0180
0180
0300
0300
0600
0600
0C00
0C00
1800
1800
3000
3000
6000
6000
0000
0000
0000
ENDCHAR
STARTCHAR DIGIT ZERO
ENCODING 48
SWIDTH 500 0
DWIDTH 16 0
BBX 16 32 0 -6
BITMAP
0000
0000
0000
0000
0000
0000
0FF0
1FF8
381C
300C
300C
301C
303C
307C
30EC
31CC
338C
370C
3E0C
3C0C
380C
300C
300C
381C
1FF8
0FF0
0000
0000
0000
0000
0000
0000
ENDCHAR
STARTCHAR DIGIT ONE
ENCODING 49
SWIDTH 500 0
DWIDTH 16 0
BBX 16 32 0 -6
BITMAP
0000
0000
0000
0000
0000
0000
0380
0780
0D80
1980
1180
0180
0180
0180
0180
0180
0180
0180
0180
0180
0180
0180
0180
0180
1FF8
1FF8
0000
0000
0000
0000
0000
0000
ENDCHAR
STARTCHAR DIGIT TWO
ENCODING 50
SWIDTH 500 0
DWIDTH 16 0
BBX 16 32 0 -6
BITMAP
0000
0000
0000
0000
0000
0000
0FF0
1FF8
381C
300C
000C
000C
000C
0018
0030
0060
00C0
0180
0300
0600
0C00
1800
300C
300C
3FFC
3FFC
0000
0000
0000
0000
0000
0000
ENDCHAR
STARTCHAR DIGIT THREE
ENCODING 51
SWIDTH 500 0
DWIDTH 16 0
BBX 16 32 0 -6
BITMAP
0000
0000
0000
0000
0000
0000
0FF0
1FF8
381C
300C
000C
000C
000C
0018
07F0
07F0
0018
000C
000C
000C
000C
000C
300C
381C
1FF8
0FF0
0000
0000
0000
0000
0000
0000
ENDCHAR
STARTCHAR DIGIT FOUR
ENCODING 52
SWIDTH 500 0
DWIDTH 16 0
BBX 16 32 0 -6
BITMAP
0000
0000
0000
0000
0000
0000
3000
3000
3000
3000
3030
3030
3030
3030
3030
3030
3030
3030
3FFC
3FFC
0030
0030
0030
0030
0030
0030
0000
0000
0000
0000
0000
0000
ENDCHAR
STARTCHAR DIGIT FIVE
ENCODING 53
SWIDTH 500 0
DWIDTH 16 0
BBX 16 32 0 -6
BITMAP
0000
0000
0000
0000
0000
0000
3FFC
3FFC
300C
300C
3000
3000
3000
3000
3FF0
3FF8
001C
000C
000C
000C
000C
000C
300C
381C
1FF8
0FF0
0000
0000
0000
0000
0000
0000
ENDCHAR
STARTCHAR DIGIT SIX
ENCODING 54
SWIDTH 500 0
DWIDTH 16 0
BBX 16 32 0 -6
BITMAP
0000
0000
0000
0000
0000
0000
0FF0
1FF8
381C
300C
3000
3000
3000
3000
3FF0
3FF8
301C
300C
300C
300C
300C
300C
300C
381C
1FF8
0FF0
0000
0000
0000
0000
0000
0000
ENDCHAR
STARTCHAR DIGIT SEVEN
ENCODING 55
SWIDTH 500 0
DWIDTH 16 0
BBX 16 32 0 -6
BITMAP
0000
0000
0000
0000
0000
0000
3FFC
3FFC
300C
300C
000C
000C
000C
0018
0030
0060
00C0
0180
0300
0300
0300
0300
0300
0300
0300
0300
0000
0000
0000
0000
0000
0000
ENDCHAR
STARTCHAR DIGIT EIGHT
ENCODING 56
SWIDTH 500 0
DWIDTH 16 0
BBX 16 32 0 -6
BITMAP
0000
0000
0000
0000
0000
0000
0FF0
1FF8
381C
300C
300C
300C
300C
1818
0FF0
0FF0
1818
300C
300C
300C
300C
300C
300C
381C
1FF8
0FF0
0000
0000
0000
0000
0000
0000
ENDCHAR
STARTCHAR DIGIT NINE
ENCODING 57
SWIDTH 500 0
DWIDTH 16 0
BBX 16 32 0 -6
BITMAP
0000
0000
0000
0000
0000
0000
0FF0
1FF8
381C
300C
300C
300C
300C
300C
300C
380C
1FFC
0FFC
000C
000C
000C
000C
300C
381C
1FF8
0FF0
0000
0000
0000
0000
0000
0000
ENDCHAR
STARTCHAR COLON
ENCODING 58
SWIDTH 500 0
DWIDTH 16 0
BBX 16 32 0 -6
BITMAP
0000
0000
0000
0000
0000
0000
0000
0000
0000
0000
0000
0000
0000
0180
0180
0180
0000
0000
0000
0000
0000
0000
0000
0180
0180
0180
0000
0000
0000
0000
0000
0000
ENDCHAR
STARTCHAR SEMICOLON
ENCODING 59
SWIDTH 500 0
DWIDTH 16 0
BBX 16 32 0 -6
BITMAP
0000
0000
0000
0000
0000
0000
0000
0000
0000
0000
0000
0000
0000
0180
0180
0180
0000
0000
0000
0000
0000
0000
0180
0180
0180
0380
0700
0600
0000
0000
0000
0000
ENDCHAR
STARTCHAR LESS-THAN SIGN
ENCODING 60
SWIDTH 500 0
DWIDTH 16 0
BBX 16 32 0 -6
BITMAP
0000
0000
0000
0000
0000
0000
001C
0038
0070
00E0
01C0
0380
0700
0E00
1C00
3800
3800
1C00
0E00
0700
0380
01C0
00E0
0070
0038
001C
0000
0000
0000
0000
0000
0000
ENDCHAR
STARTCHAR EQUALS SIGN
ENCODING 61
SWIDTH 500 0
DWIDTH 16 0
BBX 16 32 0 -6
BITMAP
0000
0000
0000
0000
0000
0000
0000
0000
0000
0000
0000
0000
3FFC
3FFC
0000
0000
0000
0000
3FFC
3FFC
0000
0000
0000
0000
0000
0000
0000
0000
0000
0000
0000
0000
ENDCHAR
STARTCHAR GREATER-THAN SIGN
ENCODING 62
SWIDTH 500 0
DWIDTH 16 0
BBX 16 32 0 -6
BITMAP
0000
0000
0000
0000
0000
0000
3800
1C00
0E00
0700
0380
01C0
00E0
0070
0038
001C
001C
0038
0070
00E0
01C0
0380
0700
0E00
1C00
3800
0000
0000
0000
0000
0000
0000
ENDCHAR
STARTCHAR QUESTION MARK
ENCODING 63
SWIDTH 500 0
DWIDTH 16 0
BBX 16 32 0 -6
BITMAP
0000
0000
0000
0000
0000
0000
0FF0
1FF8
381C
300C
000C
000C
0018
0030
0060
00C0
00C0
0180
0180
0180
0000
0000
0000
0180
0180
0180
0000
0000
0000
0000
0000
0000
ENDCHAR
STARTCHAR COMMERCIAL AT
ENCODING 64
SWIDTH 500 0
DWIDTH 16 0
BBX 16 32 0 -6
BITMAP
0000
0000
0000
0000
0000
0000
0000
0000
0FF0
1FF8
381C
300C
300C
31CC
31CC
31CC
31CC
31CC
31CC
31FC
31FC
3000
3000
3800
1FF8
0FF8
0000
0000
0000
0000
0000
0000
ENDCHAR
STARTCHAR LATIN CAPITAL LETTER A
ENCODING 65
SWIDTH 500 0
DWIDTH 16 0
BBX 16 32 0 -6
BITMAP
0000
0000
0000
0000
0000
0000
0FF0
1FF8
381C
300C
300C
300C
300C
300C
300C
3FFC
3FFC
300C
300C
300C
300C
300C
300C
300C
300C
300C
0000
0000
0000
0000
0000
0000
ENDCHAR
STARTCHAR LATIN CAPITAL LETTER B
ENCODING 66
SWIDTH 500 0
DWIDTH 16 0
BBX 16 32 0 -6
BITMAP
0000
0000
0000
0000
0000
0000
3FF0
3FF8
301C
300C
300C
300C
300C
3018
3FF0
3FF0
3018
300C
300C
300C
300C
300C
300C
301C
3FF8
3FF0
0000
0000
0000
0000
0000
0000
ENDCHAR
STARTCHAR LATIN CAPITAL LETTER C
ENCODING 67
SWIDTH 500 0
DWIDTH 16 0
BBX 16 32 0 -6
BITMAP
0000
0000
0000
0000
0000
0000
0FFC
1FFC
3800
3000
3000
3000
3000
3000
3000
3000
3000
3000
3000
3000
3000
3000
3000
3800
1FFC
0FFC
0000
0000
0000
0000
0000
0000
ENDCHAR
STARTCHAR LATIN CAPITAL LETTER D
ENCODING 68
SWIDTH 500 0
DWIDTH 16 0
BBX 16 32 0 -6
BITMAP
0000
0000
0000
0000
0000
0000
3FF0
3FF8
301C
300C
300C
300C
300C
300C
300C
300C
300C
300C
300C
300C
300C
300C
300C
301C
3FF8
3FF0
0000
0000
0000
0000
0000
0000
ENDCHAR
STARTCHAR LATIN CAPITAL LETTER E
ENCODING 69
SWIDTH 500 0
DWIDTH 16 0
BBX 16 32 0 -6
BITMAP
0000
0000
0000
0000
0000
0000
0FFC
1FFC
3800
3000
3000
3000
3000
3000
3000
3FE0
3FE0
3000
3000
3000
3000
3000
3000
3800
1FFC
0FFC
0000
0000
0000
0000
0000
0000
ENDCHAR
STARTCHAR LATIN CAPITAL LETTER F
ENCODING 70
SWIDTH 500 0
DWIDTH 16 0
BBX 16 32 0 -6
BITMAP
0000
0000
0000
0000
0000
0000
0FFC
1FFC
3800
3000
3000
3000
3000
3000
3000
3FE0
3FE0
3000
3000
3000
3000
3000
3000
3000
3000
3000
0000
0000
0000
0000
0000
0000
ENDCHAR
STARTCHAR LATIN CAPITAL LETTER G
ENCODING 71
SWIDTH 500 0
DWIDTH 16 0
BBX 16 32 0 -6
BITMAP
0000
0000
0000
0000
0000
0000
0FFC
1FFC
3800
3000
3000
3000
3000
3000
3000
30FC
30FC
300C
300C
300C
300C
300C
300C
380C
1FFC
0FFC
0000
0000
0000
0000
0000
0000
ENDCHAR
STARTCHAR LATIN CAPITAL LETTER H
ENCODING 72
SWIDTH 500 0
DWIDTH 16 0
BBX 16 32 0 -6
BITMAP
0000
0000
0000
0000
0000
0000
300C
300C
300C
300C
300C
300C
300C
300C
300C
3FFC
3FFC
300C
300C
300C
300C
300C
300C
300C
300C
300C
0000
0000
0000
0000
0000
0000
ENDCHAR
STARTCHAR LATIN CAPITAL LETTER I
ENCODING 73
SWIDTH 500 0
DWIDTH 16 0
BBX 16 32 0 -6
BITMAP
0000
0000
0000
0000
0000
0000
1FF8
1FF8
0180
0180
0180
0180
0180
0180
0180
0180
0180
0180
0180
0180
0180
0180
0180
0180
1FF8
1FF8
0000
0000
0000
0000
0000
0000
ENDCHAR
STARTCHAR LATIN CAPITAL LETTER J
ENCODING 74
SWIDTH 500 0
DWIDTH 16 0
BBX 16 32 0 -6
BITMAP
0000
0000
0000
0000
0000
0000
1FF8
1FF8
0180
0180
0180
0180
0180
0180
0180
0180
0180
0180
0180
0180
0180
0180
0180
0380
7F00
7E00
0000
0000
0000
0000
0000
0000
ENDCHAR
STARTCHAR LATIN CAPITAL LETTER K
ENCODING 75
SWIDTH 500 0
DWIDTH 16 0
BBX 16 32 0 -6
BITMAP
0000
0000
0000
0000
0000
0000
300C
300C
300C
300C
300C
300C
3018
3030
3060
3FC0
3FC0
3060
3030
3018
300C
300C
300C
300C
300C
300C
0000
0000
0000
0000
0000
0000
ENDCHAR
STARTCHAR LATIN CAPITAL LETTER L
ENCODING 76
SWIDTH 500 0
DWIDTH 16 0
BBX 16 32 0 -6
BITMAP
0000
0000
0000
0000
0000
0000
3000
3000
3000
3000
3000
3000
3000
3000
3000
3000
3000
3000
3000
3000
3000
3000
3000
3800
1FFC
0FFC
0000
0000
0000
0000
0000
0000
ENDCHAR
STARTCHAR LATIN CAPITAL LETTER M
ENCODING 77
SWIDTH 500 0
DWIDTH 16 0
BBX 16 32 0 -6
BITMAP
0000
0000
0000
0000
0000
0000
300C
381C
3C3C
3E7C
37EC
33CC
318C
300C
300C
300C
300C
300C
300C
300C
300C
300C
300C
300C
300C
300C
0000
0000
0000
0000
0000
0000
ENDCHAR
STARTCHAR LATIN CAPITAL LETTER N
ENCODING 78
SWIDTH 500 0
DWIDTH 16 0
BBX 16 32 0 -6
BITMAP
0000
0000
0000
0000
0000
0000
300C
300C
380C
380C
3C0C
3C0C
360C
360C
330C
330C
318C
318C
30CC
30CC
306C
306C
303C
303C
301C
301C
0000
0000
0000
0000
0000
0000
ENDCHAR
STARTCHAR LATIN CAPITAL LETTER O
ENCODING 79
SWIDTH 500 0
DWIDTH 16 0
BBX 16 32 0 -6
BITMAP
0000
0000
0000
0000
0000
0000
0FF0
1FF8
381C
300C
300C
300C
300C
300C
300C
300C
300C
300C
300C
300C
300C
300C
300C
381C
1FF8
0FF0
0000
0000
0000
0000
0000
0000
ENDCHAR
STARTCHAR LATIN CAPITAL LETTER P
ENCODING 80
SWIDTH 500 0
DWIDTH 16 0
BBX 16 32 0 -6
BITMAP
0000
0000
0000
0000
0000
0000
3FF0
3FF8
301C
300C
300C
300C
300C
300C
301C
3FF8
3FF0
3000
3000
3000
3000
3000
3000
3000
3000
3000
0000
0000
0000
0000
0000
0000
ENDCHAR
STARTCHAR LATIN CAPITAL LETTER Q
ENCODING 81
SWIDTH 500 0
DWIDTH 16 0
BBX 16 32 0 -6
BITMAP
0000
0000
0000
0000
0000
0000
0FF0
1FF8
381C
300C
300C
300C
300C
300C
300C
300C
300C
300C
300C
300C
318C
318C
30CC
38DC
1FF8
0FF0
0030
0030
0018
0018
0000
0000
ENDCHAR
STARTCHAR LATIN CAPITAL LETTER R
ENCODING 82
SWIDTH 500 0
DWIDTH 16 0
BBX 16 32 0 -6
BITMAP
0000
0000
0000
0000
0000
0000
3FF0
3FF8
301C
300C
300C
300C
300C
300C
3018
3FF0
3FF0
3018
300C
300C
300C
300C
300C
300C
300C
300C
0000
0000
0000
0000
0000
0000
ENDCHAR
STARTCHAR LATIN CAPITAL LETTER S
ENCODING 83
SWIDTH 500 0
DWIDTH 16 0
BBX 16 32 0 -6
BITMAP
0000
0000
0000
0000
0000
0000
0FFC
1FFC
3800
3000
3000
3000
3000
3000
3800
1FF0
0FF8
001C
000C
000C
000C
000C
000C
001C
3FF8
3FF0
0000
0000
0000
0000
0000
0000
ENDCHAR
STARTCHAR LATIN CAPITAL LETTER T
ENCODING 84
SWIDTH 500 0
DWIDTH 16 0
BBX 16 32 0 -6
BITMAP
0000
0000
0000
0000
0000
0000
7FFE
7FFE
0180
0180
0180
0180
0180
0180
0180
0180
0180
0180
0180
0180
0180
0180
0180
0180
0180
0180
0000
0000
0000
0000
0000
0000
ENDCHAR
STARTCHAR LATIN CAPITAL LETTER U
ENCODING 85
SWIDTH 500 0
DWIDTH 16 0
BBX 16 32 0 -6
BITMAP
0000
0000
0000
0000
0000
0000
300C
300C
300C
300C
300C
300C
300C
300C
300C
300C
300C
300C
300C
300C
300C
300C
300C
380C
1FFC
0FFC
0000
0000
0000
0000
0000
0000
ENDCHAR
STARTCHAR LATIN CAPITAL LETTER V
ENCODING 86
SWIDTH 500 0
DWIDTH 16 0
BBX 16 32 0 -6
BITMAP
0000
0000
0000
0000
0000
0000
300C
300C
300C
300C
300C
300C
300C
300C
300C
300C
300C
300C
300C
300C
381C
1C38
0E70
07E0
03C0
0180
0000
0000
0000
0000
0000
0000
ENDCHAR
STARTCHAR LATIN CAPITAL LETTER W
ENCODING 87
SWIDTH 500 0
DWIDTH 16 0
BBX 16 32 0 -6
BITMAP
0000
0000
0000
0000
0000
0000
300C
300C
300C
300C
300C
300C
300C
300C
300C
300C
300C
300C
300C
318C
33CC
37EC
3E7C
3C3C
381C
300C
0000
0000
0000
0000
0000
0000
ENDCHAR
STARTCHAR LATIN CAPITAL LETTER X
ENCODING 88
SWIDTH 500 0
DWIDTH 16 0
BBX 16 32 0 -6
BITMAP
0000
0000
0000
0000
0000
0000
300C
300C
300C
300C
300C
300C
381C
1C38
0E70
07E0
07E0
0E70
1C38
381C
300C
300C
300C
300C
300C
300C
0000
0000
0000
0000
0000
0000
ENDCHAR
STARTCHAR LATIN CAPITAL LETTER Y
ENCODING 89
SWIDTH 500 0
DWIDTH 16 0
BBX 16 32 0 -6
BITMAP
0000
0000
0000
0000
0000
0000
300C
300C
300C
300C
300C
300C
300C
300C
380C
1FFC
0FFC
000C
000C
000C
000C
000C
000C
001C
3FF8
3FF0
0000
0000
0000
0000
0000
0000
ENDCHAR
STARTCHAR LATIN CAPITAL LETTER Z
ENCODING 90
SWIDTH 500 0
DWIDTH 16 0
BBX 16 32 0 -6
BITMAP
0000
0000
0000
0000
0000
0000
3FFC
3FFC
000C
000C
000C
000C
0018
0030
0060
00C0
0180
0300
0600
0C00
1800
3000
3000
3000
3FFC
3FFC
0000
0000
0000
0000
0000
0000
ENDCHAR
STARTCHAR LEFT SQUARE BRACKET
ENCODING 91
SWIDTH 500 0
DWIDTH 16 0
BBX 16 32 0 -6
BITMAP
0000
0000
0FFC
0FFC
0C00
0C00
0C00
0C00
0C00
0C00
0C00
0C00
0C00
0C00
0C00
0C00
0C00
0C00
0C00
0C00
0C00
0C00
0C00
0C00
0C00
0C00
0C00
0C00
0FFC
0FFC
0000
0000
ENDCHAR
STARTCHAR REVERSE SOLIDUS
ENCODING 92
SWIDTH 500 0
DWIDTH 16 0
BBX 16 32 0 -6
BITMAP
0000
0000
0000
6000
6000
3000
3000
1800
1800
0C00
0C00
0600
0600
0300
0300
0180
0180
00C0
00C0
0060
0060
0030
0030
0018
0018
000C
000C
0006
0006
0000
0000
0000
ENDCHAR
STARTCHAR RIGHT SQUARE BRACKET
ENCODING 93
SWIDTH 500 0
DWIDTH 16 0
BBX 16 32 0 -6
BITMAP
0000
0000
3FF0
3FF0
0030
0030
0030
0030
0030
0030
0030
0030
0030
0030
0030
0030
0030
0030
0030
0030
0030
0030
0030
0030
0030
0030
0030
0030
3FF0
3FF0
0000
0000
ENDCHAR
STARTCHAR CIRCUMFLEX ACCENT
ENCODING 94
SWIDTH 500 0
DWIDTH 16 0
BBX 16 32 0 -6
BITMAP
0000
0000
0000
0000
0180
03C0
07E0
0E70
1C38
381C
700E
6006
0000
0000
0000
0000
0000
0000
0000
0000
0000
0000
0000
0000
0000
0000
0000
0000
0000
0000
0000
0000
ENDCHAR
STARTCHAR LOW LINE
ENCODING 95
SWIDTH 500 0
DWIDTH 16 0
BBX 16 32 0 -6
BITMAP
0000
0000
0000
0000
0000
0000
0000
0000
0000
0000
0000
0000
0000
0000
0000
0000
0000
0000
0000
0000
0000
0000
0000
0000
0000
0000
0000
0000
7FFE
7FFE
0000
0000
ENDCHAR
STARTCHAR GRAVE ACCENT
ENCODING 96
SWIDTH 500 0
DWIDTH 16 0
BBX 16 32 0 -6
BITMAP
0000
0000
0000
0000
0600
0700
0380
01C0
00E0
0060
0000
0000
0000
0000
0000
0000
0000
0000
0000
0000
0000
0000
0000
0000
0000
0000
0000
0000
0000
0000
0000
0000
ENDCHAR
STARTCHAR LATIN SMALL LETTER A
ENCODING 97
SWIDTH 500 0
DWIDTH 16 0
BBX 16 32 0 -6
BITMAP
0000
0000
0000
0000
0000
0000
0000
0000
0000
0000
0000
0000
1FF0
1FF8
001C
000C
000C
0FFC
1FFC
380C
300C
300C
300C
380C
1FFC
0FFC
0000
0000
0000
0000
0000
0000
ENDCHAR
STARTCHAR LATIN SMALL LETTER B
ENCODING 98
SWIDTH 500 0
DWIDTH 16 0
BBX 16 32 0 -6
BITMAP
0000
0000
0000
0000
0000
0000
3000
3000
3000
3000
3000
3000
3FF0
3FF8
301C
300C
300C
300C
300C
300C
300C
300C
300C
301C
3FF8
3FF0
0000
0000
0000
0000
0000
0000
ENDCHAR
STARTCHAR LATIN SMALL LETTER C
ENCODING 99
SWIDTH 500 0
DWIDTH 16 0
BBX 16 32 0 -6
BITMAP
0000
0000
0000
0000
0000
0000
0000
0000
0000
0000
0000
0000
0FFC
1FFC
3800
3000
3000
3000
3000
3000
3000
3000
3000
3800
1FFC
0FFC
0000
0000
0000
0000
0000
0000
ENDCHAR
STARTCHAR LATIN SMALL LETTER D
ENCODING 100
SWIDTH 500 0
DWIDTH 16 0
BBX 16 32 0 -6
BITMAP
0000
0000
0000
0000
0000
0000
000C
000C
000C
000C
000C
000C
0FFC
1FFC
380C
300C
300C
300C
300C
300C
300C
300C
300C
380C
1FFC
0FFC
0000
0000
0000
0000
0000
0000
ENDCHAR
STARTCHAR LATIN SMALL LETTER E
ENCODING 101
SWIDTH 500 0
DWIDTH 16 0
BBX 16 32 0 -6
BITMAP
0000
0000
0000
0000
0000
0000
0000
0000
0000
0000
0000
0000
0FFC
1FFC
380C
300C
300C
300C
3FFC
3FFC
3000
3000
3000
3800
1FFC
0FFC
0000
0000
0000
0000
0000
0000
ENDCHAR
STARTCHAR LATIN SMALL LETTER F
ENCODING 102
SWIDTH 500 0
DWIDTH 16 0
BBX 16 32 0 -6
BITMAP
0000
0000
0000
0000
0000
0000
01F8
03F8
0700
0600
0600
0600
0600
0600
1FE0
1FE0
0600
0600
0600
0600
0600
0600
0600
0600
0600
0600
0000
0000
0000
0000
0000
0000
ENDCHAR
STARTCHAR LATIN SMALL LETTER G
ENCODING 103
SWIDTH 500 0
DWIDTH 16 0
BBX 16 32 0 -6
BITMAP
0000
0000
0000
0000
0000
0000
0000
0000
0000
0000
0000
0000
0FFC
1FFC
380C
300C
300C
300C
300C
300C
300C
300C
300C
381C
1FF8
0FF0
0018
000C
000C
001C
3FF8
3FF0
ENDCHAR
STARTCHAR LATIN SMALL LETTER H
ENCODING 104
SWIDTH 500 0
DWIDTH 16 0
BBX 16 32 0 -6
BITMAP
0000
0000
0000
0000
0000
0000
3000
3000
3000
3000
3000
3000
3FF0
3FF8
301C
300C
300C
300C
300C
300C
300C
300C
300C
300C
300C
300C
0000
0000
0000
0000
0000
0000
ENDCHAR
STARTCHAR LATIN SMALL LETTER I
ENCODING 105
SWIDTH 500 0
DWIDTH 16 0
BBX 16 32 0 -6
BITMAP
0000
0000
0000
0000
0000
0000
0180
0180
0180
0000
0000
0000
0780
0780
0180
0180
0180
0180
0180
0180
0180
0180
0180
0180
01E0
01E0
0000
0000
0000
0000
0000
0000
ENDCHAR
STARTCHAR LATIN SMALL LETTER J
ENCODING 106
SWIDTH 500 0
DWIDTH 16 0
BBX 16 32 0 -6
BITMAP
0000
0000
0000
0000
0000
0000
0180
0180
0180
0000
0000
0000
0180
0180
0180
0180
0180
0180
0180
0180
0180
0180
0180
0180
0180
0180
0180
0180
0180
0380
1F00
1E00
ENDCHAR
STARTCHAR LATIN SMALL LETTER K
ENCODING 107
SWIDTH 500 0
DWIDTH 16 0
BBX 16 32 0 -6
BITMAP
0000
0000
0000
0000
0000
0000
1800
1800
1800
1800
1800
1800
1830
1870
18E0
19C0
1B80
1F00
1F00
1B80
19C0
18E0
1870
1838
181C
180C
0000
0000
0000
0000
0000
0000
ENDCHAR
STARTCHAR LATIN SMALL LETTER L
ENCODING 108
SWIDTH 500 0
DWIDTH 16 0
BBX 16 32 0 -6
BITMAP
0000
0000
0000
0000
0000
0000
0600
0600
0600
0600
0600
0600
0600
0600
0600
0600
0600
0600
0600
0600
0600
0600
0600
0700
03F8
01F8
0000
0000
0000
0000
0000
0000
ENDCHAR
STARTCHAR LATIN SMALL LETTER M
ENCODING 109
SWIDTH 500 0
DWIDTH 16 0
BBX 16 32 0 -6
BITMAP
0000
0000
0000
0000
0000
0000
0000
0000
0000
0000
0000
0000
3E70
3E78
319C
318C
318C
318C
318C
318C
318C
318C
300C
300C
300C
300C
0000
0000
0000
0000
0000
0000
ENDCHAR
STARTCHAR LATIN SMALL LETTER N
ENCODING 110
SWIDTH 500 0
DWIDTH 16 0
BBX 16 32 0 -6
BITMAP
0000
0000
0000
0000
0000
0000
0000
0000
0000
0000
0000
0000
3FF0
3FF8
301C
300C
300C
300C
300C
300C
300C
300C
300C
300C
300C
300C
0000
0000
0000
0000
0000
0000
ENDCHAR
STARTCHAR LATIN SMALL LETTER O
ENCODING 111
SWIDTH 500 0
DWIDTH 16 0
BBX 16 32 0 -6
BITMAP
0000
0000
0000
0000
0000
0000
0000
0000
0000
0000
0000
0000
0FF0
1FF8
381C
300C
300C
300C
300C
300C
300C
300C
300C
381C
1FF8
0FF0
0000
0000
0000
0000
0000
0000
ENDCHAR
STARTCHAR LATIN SMALL LETTER P
ENCODING 112
SWIDTH 500 0
DWIDTH 16 0
BBX 16 32 0 -6
BITMAP
0000
0000
0000
0000
0000
0000
0000
0000
0000
0000
0000
0000
3FF0
3FF8
301C
300C
300C
300C
300C
300C
300C
300C
300C
301C
3FF8
3FF0
3000
3000
3000
3000
3000
3000
ENDCHAR
STARTCHAR LATIN SMALL LETTER Q
ENCODING 113
SWIDTH 500 0
DWIDTH 16 0
BBX 16 32 0 -6
BITMAP
0000
0000
0000
0000
0000
0000
0000
0000
0000
0000
0000
0000
0FFC
1FFC
380C
300C
300C
300C
300C
300C
300C
300C
300C
380C
1FFC
0FFC
000C
000C
000C
000C
000C
000C
ENDCHAR
STARTCHAR LATIN SMALL LETTER R
ENCODING 114
SWIDTH 500 0
DWIDTH 16 0
BBX 16 32 0 -6
BITMAP
0000
0000
0000
0000
0000
0000
0000
0000
0000
0000
0000
0000
0FFC
1FFC
380C
300C
3000
3000
3000
3000
3000
3000
3000
3000
3000
3000
0000
0000
0000
0000
0000
0000
ENDCHAR
STARTCHAR LATIN SMALL LETTER S
ENCODING 115
SWIDTH 500 0
DWIDTH 16 0
BBX 16 32 0 -6
BITMAP
0000
0000
0000
0000
0000
0000
0000
0000
0000
0000
0000
0000
0FFC
1FFC
3800
3000
3000
3800
1FF0
0FF8
001C
000C
000C
001C
3FF8
3FF0
0000
0000
0000
0000
0000
0000
ENDCHAR
STARTCHAR LATIN SMALL LETTER T
ENCODING 116
SWIDTH 500 0
DWIDTH 16 0
BBX 16 32 0 -6
BITMAP
0000
0000
0000
0000
0000
0000
0600
0600
0600
0600
0600
0600
1FE0
1FE0
0600
0600
0600
0600
0600
0600
0600
0600
0600
0700
03F8
01F8
0000
0000
0000
0000
0000
0000
ENDCHAR
STARTCHAR LATIN SMALL LETTER U
ENCODING 117
SWIDTH 500 0
DWIDTH 16 0
BBX 16 32 0 -6
BITMAP
0000
0000
0000
0000
0000
0000
0000
0000
0000
0000
0000
0000
300C
300C
300C
300C
300C
300C
300C
300C
300C
300C
300C
380C
1FFC
0FFC
0000
0000
0000
0000
0000
0000
ENDCHAR
STARTCHAR LATIN SMALL LETTER V
ENCODING 118
SWIDTH 500 0
DWIDTH 16 0
BBX 16 32 0 -6
BITMAP
0000
0000
0000
0000
0000
0000
0000
0000
0000
0000
0000
0000
300C
300C
300C
300C
300C
300C
300C
300C
381C
1C38
0E70
07E0
03C0
0180
0000
0000
0000
0000
0000
0000
ENDCHAR
STARTCHAR LATIN SMALL LETTER W
ENCODING 119
SWIDTH 500 0
DWIDTH 16 0
BBX 16 32 0 -6
BITMAP
0000
0000
0000
0000
0000
0000
0000
0000
0000
0000
0000
0000
300C
300C
300C
300C
318C
318C
318C
318C
318C
318C
318C
398C
1E7C
0E7C
0000
0000
0000
0000
0000
0000
ENDCHAR
STARTCHAR LATIN SMALL LETTER X
ENCODING 120
SWIDTH 500 0
DWIDTH 16 0
BBX 16 32 0 -6
BITMAP
0000
0000
0000
0000
0000
0000
0000
0000
0000
0000
0000
0000
300C
381C
1C38
0E70
07E0
03C0
03C0
07E0
0E70
1C38
1818
381C
300C
300C
0000
0000
0000
0000
0000
0000
ENDCHAR
STARTCHAR LATIN SMALL LETTER Y
ENCODING 121
SWIDTH 500 0
DWIDTH 16 0
BBX 16 32 0 -6
BITMAP
0000
0000
0000
0000
0000
0000
0000
0000
0000
0000
0000
0000
300C
300C
300C
300C
300C
300C
300C
300C
300C
300C
300C
380C
1FFC
0FFC
000C
000C
000C
001C
3FF8
3FF0
ENDCHAR
STARTCHAR LATIN SMALL LETTER Z
ENCODING 122
SWIDTH 500 0
DWIDTH 16 0
BBX 16 32 0 -6
BITMAP
0000
0000
0000
0000
0000
0000
0000
0000
0000
0000
0000
0000
3FFC
3FFC
000C
0018
0030
0060
00C0
0180
0300
0600
0C00
1800
3FFC
3FFC
0000
0000
0000
0000
0000
0000
ENDCHAR
STARTCHAR LEFT CURLY BRACKET
ENCODING 123
SWIDTH 500 0
DWIDTH 16 0
BBX 16 32 0 -6
BITMAP
0000
0000
00FC
01FC
0380
0300
0300
0300
0300
0300
0300
0300
0300
0700
3E00
3C00
3C00
3E00
0700
0300
0300
0300
0300
0300
0300
0300
0300
0380
01FC
00FC
0000
0000
ENDCHAR
STARTCHAR VERTICAL LINE
ENCODING 124
SWIDTH 500 0
DWIDTH 16 0
BBX 16 32 0 -6
BITMAP
0000
0000
0000
0000
0180
0180
0180
0180
0180
0180
0180
0180
0180
0180
0180
0180
0180
0180
0180
0180
0180
0180
0180
0180
0180
0180
0180
0180
0000
0000
0000
0000
ENDCHAR
STARTCHAR RIGHT CURLY BRACKET
ENCODING 125
SWIDTH 500 0
DWIDTH 16 0
BBX 16 32 0 -6
BITMAP
0000
0000
3F00
3F80
01C0
00C0
00C0
00C0
00C0
00C0
00C0
00C0
00C0
00E0
007C
003C
003C
007C
00E0
00C0
00C0
00C0
00C0
00C0
00C0
00C0
00C0
01C0
3F80
3F00
0000
0000
ENDCHAR
STARTCHAR TILDE
ENCODING 126
SWIDTH 500 0
DWIDTH 16 0
BBX 16 32 0 -6
BITMAP
0000
0000
0000
0000
0000
0000
0000
0000
0000
0000
0000
0000
0000
0000
0E0C
1F0C
3B9C
31F8
30F0
0000
0000
0000
0000
0000
0000
0000
0000
0000
0000
0000
0000
0000
ENDCHAR
STARTCHAR HOUSE
ENCODING 127
SWIDTH 500 0
DWIDTH 16 0
BBX 16 32 0 -6
BITMAP
0000
0000
0000
0000
0000
0000
0000
0000
0000
0000
0180
03C0
07E0
0E70
1C38
381C
300C
300C
300C
300C
300C
300C
3FFC
3FFC
0000
0000
0000
0000
0000
0000
0000
0000
ENDCHAR
STARTCHAR LATIN CAPITAL LETTER C WITH CEDILLA
ENCODING 128
SWIDTH 500 0
DWIDTH 16 0
BBX 16 32 0 -6
BITMAP
0000
0000
0000
0000
0000
0000
0FFC
1FFC
3800
3000
3000
3000
3000
3000
3000
3000
3000
3000
3000
3000
3000
3000
3000
3800
1FFC
0FFC
00C0
00C0
00C0
01C0
0380
0300
ENDCHAR
STARTCHAR LATIN SMALL LETTER U WITH DIAERESIS
ENCODING 129
SWIDTH 500 0
DWIDTH 16 0
BBX 16 32 0 -6
BITMAP
0000
0000
0000
0000
0000
0000
0C30
0C30
0C30
0000
0000
0000
300C
300C
300C
300C
300C
300C
300C
300C
300C
300C
300C
380C
1FFC
0FFC
0000
0000
0000
0000
0000
0000
ENDCHAR
STARTCHAR LATIN SMALL LETTER E WITH ACUTE
ENCODING 130
SWIDTH 500 0
DWIDTH 16 0
BBX 16 32 0 -6
BITMAP
0000
0000
0000
0000
0030
0070
00E0
01C0
0380
0300
0000
0000
0FFC
1FFC
380C
300C
300C
300C
3FFC
3FFC
3000
3000
3000
3800
1FFC
0FFC
0000
0000
0000
0000
0000
0000
ENDCHAR
STARTCHAR LATIN SMALL LETTER A WITH CIRCUMFLEX
ENCODING 131
SWIDTH 500 0
DWIDTH 16 0
BBX 16 32 0 -6
BITMAP
0000
0000
0000
0000
0180
03C0
07E0
0E70
1C38
1818
0000
0000
1FF0
1FF8
001C
000C
000C
0FFC
1FFC
380C
300C
300C
300C
380C
1FFC
0FFC
0000
0000
0000
0000
0000
0000
ENDCHAR
STARTCHAR LATIN SMALL LETTER A WITH DIAERESIS
ENCODING 132
SWIDTH 500 0
DWIDTH 16 0
BBX 16 32 0 -6
BITMAP
0000
0000
0000
0000
0000
0000
0C30
0C30
0C30
0000
0000
0000
1FF0
1FF8
001C
000C
000C
0FFC
1FFC
380C
300C
300C
300C
380C
1FFC
0FFC
0000
0000
0000
0000
0000
0000
ENDCHAR
STARTCHAR LATIN SMALL LETTER A WITH GRAVE
ENCODING 133
SWIDTH 500 0
DWIDTH 16 0
BBX 16 32 0 -6
BITMAP
0000
0000
0000
0000
0600
0700
0380
01C0
00E0
0060
0000
0000
1FF0
1FF8
001C
000C
000C
0FFC
1FFC
380C
300C
300C
300C
380C
1FFC
0FFC
0000
0000
0000
0000
0000
0000
ENDCHAR
STARTCHAR LATIN SMALL LETTER A WITH RING ABOVE
ENCODING 134
SWIDTH 500 0
DWIDTH 16 0
BBX 16 32 0 -6
BITMAP
0000
0000
0000
01C0
03E0
0630
0630
0630
03E0
01C0
0000
0000
1FF0
1FF8
001C
000C
000C
0FFC
1FFC
380C
300C
300C
300C
380C
1FFC
0FFC
0000
0000
0000
0000
0000
0000
ENDCHAR
STARTCHAR LATIN SMALL LETTER C WITH CEDILLA
ENCODING 135
SWIDTH 500 0
DWIDTH 16 0
BBX 16 32 0 -6
BITMAP
0000
0000
0000
0000
0000
0000
0000
0000
0000
0000
0000
0000
0FFC
1FFC
3800
3000
3000
3000
3000
3000
3000
3000
3000
3800
1FFC
0FFC
00C0
00C0
00C0
01C0
0380
0300
ENDCHAR
STARTCHAR LATIN SMALL LETTER E WITH CIRCUMFLEX
ENCODING 136
SWIDTH 500 0
DWIDTH 16 0
BBX 16 32 0 -6
BITMAP
0000
0000
0000
0000
0180
03C0
07E0
0E70
1C38
1818
0000
0000
0FFC
1FFC
380C
300C
300C
300C
3FFC
3FFC
3000
3000
3000
3800
1FFC
0FFC
0000
0000
0000
0000
0000
0000
ENDCHAR
STARTCHAR LATIN SMALL LETTER E WITH DIAERESIS
ENCODING 137
SWIDTH 500 0
DWIDTH 16 0
BBX 16 32 0 -6
BITMAP
0000
0000
0000
0000
0000
0000
0C30
0C30
0C30
0000
0000
0000
0FFC
1FFC
380C
300C
300C
300C
3FFC
3FFC
3000
3000
3000
3800
1FFC
0FFC
0000
0000
0000
0000
0000
0000
ENDCHAR
STARTCHAR LATIN SMALL LETTER E WITH GRAVE
ENCODING 138
SWIDTH 500 0
DWIDTH 16 0
BBX 16 32 0 -6
BITMAP
0000
0000
0000
0000
0600
0700
0380
01C0
00E0
0060
0000
0000
0FFC
1FFC
380C
300C
300C
300C
3FFC
3FFC
3000
3000
3000
3800
1FFC
0FFC
0000
0000
0000
0000
0000
0000
ENDCHAR
STARTCHAR LATIN SMALL LETTER I WITH DIAERESIS
ENCODING 139
SWIDTH 500 0
DWIDTH 16 0
BBX 16 32 0 -6
BITMAP
0000
0000
0000
0000
0000
0000
0C30
0C30
0C30
0000
0000
0000
0780
0780
0180
0180
0180
0180
0180
0180
0180
0180
0180
0180
01E0
01E0
0000
0000
0000
0000
0000
0000
ENDCHAR
STARTCHAR LATIN SMALL LETTER I WITH CIRCUMFLEX
ENCODING 140
SWIDTH 500 0
DWIDTH 16 0
BBX 16 32 0 -6
BITMAP
0000
0000
0000
0000
0180
03C0
07E0
0E70
1C38
1818
0000
0000
0780
0780
0180
0180
0180
0180
0180
0180
0180
0180
0180
0180
01E0
01E0
0000
0000
0000
0000
0000
0000
ENDCHAR
STARTCHAR LATIN SMALL LETTER I WITH GRAVE
ENCODING 141
SWIDTH 500 0
DWIDTH 16 0
BBX 16 32 0 -6
BITMAP
0000
0000
0000
0000
0600
0700
0380
01C0
00E0
0060
0000
0000
0780
0780
0180
0180
0180
0180
0180
0180
0180
0180
0180
0180
01E0
01E0
0000
0000
0000
0000
0000
0000
ENDCHAR
STARTCHAR LATIN CAPITAL LETTER A WITH DIAERESIS
ENCODING 142
SWIDTH 500 0
DWIDTH 16 0
BBX 16 32 0 -6
BITMAP
0000
0C30
0C30
0C30
0000
0000
0FF0
1FF8
381C
300C
300C
300C
300C
300C
300C
3FFC
3FFC
300C
300C
300C
300C
300C
300C
300C
300C
300C
0000
0000
0000
0000
0000
0000
ENDCHAR
STARTCHAR LATIN CAPITAL LETTER A WITH RING ABOVE
ENCODING 143
SWIDTH 500 0
DWIDTH 16 0
BBX 16 32 0 -6
BITMAP
0180
03C0
0660
0660
03C0
0180
0FF0
1FF8
381C
300C
300C
300C
300C
300C
300C
3FFC
3FFC
300C
300C
300C
300C
300C
300C
300C
300C
300C
0000
0000
0000
0000
0000
0000
ENDCHAR
STARTCHAR LATIN CAPITAL LETTER E WITH ACUTE
ENCODING 144
SWIDTH 500 0
DWIDTH 16 0
BBX 16 32 0 -6
BITMAP
0000
00E0
01C0
0380
0700
0000
0FFC
1FFC
3800
3000
3000
3000
3000
3000
3000
3FE0
3FE0
3000
3000
3000
3000
3000
3000
3800
1FFC
0FFC
0000
0000
0000
0000
0000
0000
ENDCHAR
STARTCHAR LATIN SMALL LETTER AE
ENCODING 145
SWIDTH 500 0
DWIDTH 16 0
BBX 16 32 0 -6
BITMAP
0000
0000
0000
0000
0000
0000
0000
0000
0000
0000
0000
0000
1E7C
1FFC
03CC
018C
018C
0F8C
1FFC
39FC
3180
3180
3180
39C0
1FFC
0F7C
0000
0000
0000
0000
0000
0000
ENDCHAR
STARTCHAR LATIN CAPITAL LETTER AE
ENCODING 146
SWIDTH 500 0
DWIDTH 16 0
BBX 16 32 0 -6
BITMAP
0000
0000
0000
0000
0000
0000
0FFC
1FFC
38C0
30C0
30C0
30C0
30C0
30C0
30C0
3FFC
3FFC
30C0
30C0
30C0
30C0
30C0
30C0
30C0
30FC
30FC
0000
0000
0000
0000
0000
0000
ENDCHAR
STARTCHAR LATIN SMALL LETTER O WITH CIRCUMFLEX
ENCODING 147
SWIDTH 500 0
DWIDTH 16 0
BBX 16 32 0 -6
BITMAP
0000
0000
0000
0000
0180
03C0
07E0
0E70
1C38
1818
0000
0000
0FF0
1FF8
381C
300C
300C
300C
300C
300C
300C
300C
300C
381C
1FF8
0FF0
0000
0000
0000
0000
0000
0000
ENDCHAR
STARTCHAR LATIN SMALL LETTER O WITH DIAERESIS
ENCODING 148
SWIDTH 500 0
DWIDTH 16 0
BBX 16 32 0 -6
BITMAP
0000
0000
0000
0000
0000
0000
0C30
0C30
0C30
0000
0000
0000
0FF0
1FF8
381C
300C
300C
300C
300C
300C
300C
300C
300C
381C
1FF8
0FF0
0000
0000
0000
0000
0000
0000
ENDCHAR
STARTCHAR LATIN SMALL LETTER O WITH GRAVE
ENCODING 149
SWIDTH 500 0
DWIDTH 16 0
BBX 16 32 0 -6
BITMAP
0000
0000
0000
0000
0600
0700
0380
01C0
00E0
0060
0000
0000
0FF0
1FF8
381C
300C
300C
300C
300C
300C
300C
300C
300C
381C
1FF8
0FF0
0000
0000
0000
0000
0000
0000
ENDCHAR
STARTCHAR LATIN SMALL LETTER U WITH CIRCUMFLEX
ENCODING 150
SWIDTH 500 0
DWIDTH 16 0
BBX 16 32 0 -6
BITMAP
0000
0000
0000
0000
0180
03C0
07E0
0E70
1C38
1818
0000
0000
300C
300C
300C
300C
300C
300C
300C
300C
300C
300C
300C
380C
1FFC
0FFC
0000
0000
0000
0000
0000
0000
ENDCHAR
STARTCHAR LATIN SMALL LETTER U WITH GRAVE
ENCODING 151
SWIDTH 500 0
DWIDTH 16 0
BBX 16 32 0 -6
BITMAP
0000
0000
0000
0000
0600
0700
0380
01C0
00E0
0060
0000
0000
300C
300C
300C
300C
300C
300C
300C
300C
300C
300C
300C
380C
1FFC
0FFC
0000
0000
0000
0000
0000
0000
ENDCHAR
STARTCHAR LATIN SMALL LETTER Y WITH DIAERESIS
ENCODING 152
SWIDTH 500 0
DWIDTH 16 0
BBX 16 32 0 -6
BITMAP
0000
0000
0000
0000
0000
0000
0C30
0C30
0C30
0000
0000
0000
300C
300C
300C
300C
300C
300C
300C
300C
300C
300C
300C
380C
1FFC
0FFC
000C
000C
000C
001C
3FF8
3FF0
ENDCHAR
STARTCHAR LATIN CAPITAL LETTER O WITH DIAERESIS
ENCODING 153
SWIDTH 500 0
DWIDTH 16 0
BBX 16 32 0 -6
BITMAP
0000
0C30
0C30
0C30
0000
0000
0FF0
1FF8
381C
300C
300C
300C
300C
300C
300C
300C
300C
300C
300C
300C
300C
300C
300C
381C
1FF8
0FF0
0000
0000
0000
0000
0000
0000
ENDCHAR
STARTCHAR LATIN CAPITAL LETTER U WITH DIAERESIS
ENCODING 154
SWIDTH 500 0
DWIDTH 16 0
BBX 16 32 0 -6
BITMAP
0000
0C30
0C30
0C30
0000
0000
300C
300C
300C
300C
300C
300C
300C
300C
300C
300C
300C
300C
300C
300C
300C
300C
300C
380C
1FFC
0FFC
0000
0000
0000
0000
0000
0000
ENDCHAR
STARTCHAR CENT SIGN
ENCODING 155
SWIDTH 500 0
DWIDTH 16 0
BBX 16 32 0 -6
BITMAP
0000
0000
0000
0000
0000
0000
0000
0000
0000
0000
00C0
00C0
0FFC
1FFC
38C0
30C0
30C0
30C0
30C0
30C0
30C0
30C0
30C0
38C0
1FFC
0FFC
00C0
00C0
0000
0000
0000
0000
ENDCHAR
STARTCHAR POUND SIGN
ENCODING 156
SWIDTH 500 0
DWIDTH 16 0
BBX 16 32 0 -6
BITMAP
0000
0000
0000
0000
0000
0000
03E0
07F0
0E38
0C18
0C00
0C00
0C00
0C00
0C00
3FF0
3FF0
0C00
0C00
0C00
0C00
0C00
1800
1800
3FFC
3FFC
0000
0000
0000
0000
0000
0000
ENDCHAR
STARTCHAR YEN SIGN
ENCODING 157
SWIDTH 500 0
DWIDTH 16 0
BBX 16 32 0 -6
BITMAP
0000
0000
0000
0000
0000
0000
300C
300C
1818
1818
0C30
0C30
0660
0660
03C0
03C0
0180
0180
1FF8
1FF8
0180
0180
1FF8
1FF8
0180
0180
0000
0000
0000
0000
0000
0000
ENDCHAR
STARTCHAR PESETA SIGN
ENCODING 158
SWIDTH 500 0
DWIDTH 16 0
BBX 16 32 0 -6
BITMAP
0000
0000
0000
0000
0000
0000
3FC0
3FE0
3070
3030
3030
3030
3070
3FE0
3FC0
3030
3030
31FE
31FE
3030
3030
3030
3030
3038
303E
301E
0000
0000
0000
0000
0000
0000
ENDCHAR
STARTCHAR LATIN SMALL LETTER F WITH HOOK
ENCODING 159
SWIDTH 500 0
DWIDTH 16 0
BBX 16 32 0 -6
BITMAP
0000
0000
0000
0000
0000
0000
0070
00F8
01DC
018C
018C
018C
0180
0180
0180
0180
0FF0
0FF0
0180
0180
0180
0180
0180
0180
3180
3180
3180
3B80
1F00
0E00
0000
0000
ENDCHAR
STARTCHAR LATIN SMALL LETTER A WITH ACUTE
ENCODING 160
SWIDTH 500 0
DWIDTH 16 0
BBX 16 32 0 -6
BITMAP
0000
0000
0000
0000
0030
0070
00E0
01C0
0380
0300
0000
0000
1FF0
1FF8
001C
000C
000C
0FFC
1FFC
380C
300C
300C
300C
380C
1FFC
0FFC
0000
0000
0000
0000
0000
0000
ENDCHAR
STARTCHAR LATIN SMALL LETTER I WITH ACUTE
ENCODING 161
SWIDTH 500 0
DWIDTH 16 0
BBX 16 32 0 -6
BITMAP
0000
0000
0000
0000
0060
00E0
01C0
0380
0700
0600
0000
0000
0780
0780
0180
0180
0180
0180
0180
0180
0180
0180
0180
0180
01E0
01E0
0000
0000
0000
0000
0000
0000
ENDCHAR
STARTCHAR LATIN SMALL LETTER O WITH ACUTE
ENCODING 162
SWIDTH 500 0
DWIDTH 16 0
BBX 16 32 0 -6
BITMAP
0000
0000
0000
0000
0060
00E0
01C0
0380
0700
0600
0000
0000
0FF0
1FF8
381C
300C
300C
300C
300C
300C
300C
300C
300C
381C
1FF8
0FF0
0000
0000
0000
0000
0000
0000
ENDCHAR
STARTCHAR LATIN SMALL LETTER U WITH ACUTE
ENCODING 163
SWIDTH 500 0
DWIDTH 16 0
BBX 16 32 0 -6
BITMAP
0000
0000
0000
0000
0060
00E0
01C0
0380
0700
0600
0000
0000
300C
300C
300C
300C
300C
300C
300C
300C
300C
300C
300C
380C
1FFC
0FFC
0000
0000
0000
0000
0000
0000
ENDCHAR
STARTCHAR LATIN SMALL LETTER N WITH TILDE
ENCODING 164
SWIDTH 500 0
DWIDTH 16 0
BBX 16 32 0 -6
BITMAP
0000
0000
0000
0000
0E0C
1F0C
3B9C
31F8
30F0
0000
0000
0000
3FF0
3FF8
301C
300C
300C
300C
300C
300C
300C
300C
300C
300C
300C
300C
0000
0000
0000
0000
0000
0000
ENDCHAR
STARTCHAR LATIN CAPITAL LETTER N WITH TILDE
ENCODING 165
SWIDTH 500 0
DWIDTH 16 0
BBX 16 32 0 -6
BITMAP
0000
0F0C
1F9C
39F8
30F0
0000
300C
300C
380C
380C
3C0C
3C0C
360C
360C
330C
330C
318C
318C
30CC
30CC
306C
306C
303C
303C
301C
301C
0000
0000
0000
0000
0000
0000
ENDCHAR
STARTCHAR FEMININE ORDINAL INDICATOR
ENCODING 166
SWIDTH 500 0
DWIDTH 16 0
BBX 16 32 0 -6
BITMAP
0000
0000
0000
0000
07C0
07E0
0070
0030
07F0
0FF0
0C30
0C30
0FF0
07F0
0000
0000
0FF0
0FF0
0000
0000
0000
0000
0000
0000
0000
0000
0000
0000
0000
0000
0000
0000
ENDCHAR
STARTCHAR MASCULINE ORDINAL INDICATOR
ENCODING 167
SWIDTH 500 0
DWIDTH 16 0
BBX 16 32 0 -6
BITMAP
0000
0000
0000
0000
0000
03C0
07E0
0E70
0C30
0C30
0C30
0E70
07E0
03C0
0000
0000
0FF0
0FF0
0000
0000
0000
0000
0000
0000
0000
0000
0000
0000
0000
0000
0000
0000
ENDCHAR
STARTCHAR INVERTED QUESTION MARK
ENCODING 168
SWIDTH 500 0
DWIDTH 16 0
BBX 16 32 0 -6
BITMAP
0000
0000
0000
0000
0000
0000
0180
0180
0180
0000
0000
0000
0180
0180
0180
0300
0300
0600
0C00
1800
3000
3000
300C
381C
1FF8
0FF0
0000
0000
0000
0000
0000
0000
ENDCHAR
STARTCHAR REVERSED NOT SIGN
ENCODING 169
SWIDTH 500 0
DWIDTH 16 0
BBX 16 32 0 -6
BITMAP
0000
0000
0000
0000
0000
0000
0000
0000
0000
0000
0000
0000
3FFC
3FFC
3000
3000
3000
3000
3000
3000
0000
0000
0000
0000
0000
0000
0000
0000
0000
0000
0000
0000
ENDCHAR
STARTCHAR NOT SIGN
ENCODING 170
SWIDTH 500 0
DWIDTH 16 0
BBX 16 32 0 -6
BITMAP
0000
0000
0000
0000
0000
0000
0000
0000
0000
0000
0000
0000
3FFC
3FFC
000C
000C
000C
000C
000C
000C
0000
0000
0000
0000
0000
0000
0000
0000
0000
0000
0000
0000
ENDCHAR
STARTCHAR VULGAR FRACTION ONE HALF
ENCODING 171
SWIDTH 500 0
DWIDTH 16 0
BBX 16 32 0 -6
BITMAP
0000
0000
1800
3800
7800
5800
1800
1800
1800
1806
180E
181C
7E38
7E70
00E0
01C0
0380
0700
0E78
1CFC
3986
7006
6006
000C
0018
0030
0060
00C6
01FE
01FE
0000
0000
ENDCHAR
STARTCHAR VULGAR FRACTION ONE QUARTER
ENCODING 172
SWIDTH 500 0
DWIDTH 16 0
BBX 16 32 0 -6
BITMAP
0000
0000
1800
3800
7800
5800
1800
1800
1800
1806
180E
181C
7E38
7E70
00E0
01C0
0380
0700
0E00
1D80
3980
7198
6198
0198
0198
01FE
01FE
0018
0018
0018
0000
0000
ENDCHAR
STARTCHAR INVERTED EXCLAMATION MARK
ENCODING 173
SWIDTH 500 0
DWIDTH 16 0
BBX 16 32 0 -6
BITMAP
0000
0000
0000
0000
0000
0000
0180
0180
0000
0000
0000
0000
0180
0180
0180
0180
0180
0180
0180
0180
0180
0180
0180
0180
0180
0180
0000
0000
0000
0000
0000
0000
ENDCHAR
STARTCHAR LEFT-POINTING DOUBLE ANGLE QUOTATION MARK
ENCODING 174
SWIDTH 500 0
DWIDTH 16 0
BBX 16 32 0 -6
BITMAP
0000
0000
0000
0000
0000
0000
0000
0000
0000
0000
0000
0000
0000
0000
039C
0738
0E70
1CE0
39C0
39C0
1CE0
0E70
0738
039C
0000
0000
0000
0000
0000
0000
0000
0000
ENDCHAR
STARTCHAR RIGHT-POINTING DOUBLE ANGLE QUOTATION MARK
ENCODING 175
SWIDTH 500 0
DWIDTH 16 0
BBX 16 32 0 -6
BITMAP
0000
0000
0000
0000
0000
0000
0000
0000
0000
0000
0000
0000
0000
0000
39C0
1CE0
0E70
0738
039C
039C
0738
0E70
1CE0
39C0
0000
0000
0000
0000
0000
0000
0000
0000
ENDCHAR
STARTCHAR LIGHT SHADE
ENCODING 176
SWIDTH 500 0
DWIDTH 16 0
BBX 16 32 0 -6
BITMAP
0303
0303
3030
3030
0303
0303
3030
3030
0303
0303
3030
3030
0303
0303
3030
3030
0303
0303
3030
3030
0303
0303
3030
3030
0303
0303
3030
3030
0303
0303
3030
3030
ENDCHAR
STARTCHAR MEDIUM SHADE
ENCODING 177
SWIDTH 500 0
DWIDTH 16 0
BBX 16 32 0 -6
BITMAP
3333
3333
CCCC
CCCC
3333
3333
CCCC
CCCC
3333
3333
CCCC
CCCC
3333
3333
CCCC
CCCC
3333
3333
CCCC
CCCC
3333
3333
CCCC
CCCC
3333
3333
CCCC
CCCC
3333
3333
CCCC
CCCC
ENDCHAR
STARTCHAR DARK SHADE
ENCODING 178
SWIDTH 500 0
DWIDTH 16 0
BBX 16 32 0 -6
BITMAP
F3F3
F3F3
3F3F
3F3F
F3F3
F3F3
3F3F
3F3F
F3F3
F3F3
3F3F
3F3F
F3F3
F3F3
3F3F
3F3F
F3F3
F3F3
3F3F
3F3F
F3F3
F3F3
3F3F
3F3F
F3F3
F3F3
3F3F
3F3F
F3F3
F3F3
3F3F
3F3F
ENDCHAR
STARTCHAR BOX DRAWINGS LIGHT VERTICAL
ENCODING 179
SWIDTH 500 0
DWIDTH 16 0
BBX 16 32 0 -6
BITMAP
0180
0180
0180
0180
0180
0180
0180
0180
0180
0180
0180
0180
0180
0180
0180
0180
0180
0180
0180
0180
0180
0180
0180
0180
0180
0180
0180
0180
0180
0180
0180
0180
ENDCHAR
STARTCHAR BOX DRAWINGS LIGHT VERTICAL AND LEFT
ENCODING 180
SWIDTH 500 0
DWIDTH 16 0
BBX 16 32 0 -6
BITMAP
0180
0180
0180
0180
0180
0180
0180
0180
0180
0180
0180
0180
0180
0180
0180
FF80
FF80
0180
0180
0180
0180
0180
0180
0180
0180
0180
0180
0180
0180
0180
0180
0180
ENDCHAR
STARTCHAR BOX DRAWINGS VERTICAL SINGLE AND LEFT DOUBLE
ENCODING 181
SWIDTH 500 0
DWIDTH 16 0
BBX 16 32 0 -6
BITMAP
0180
0180
0180
0180
0180
0180
0180
0180
0180
0180
0180
0180
0180
FF80
FF80
0180
0180
FF80
FF80
0180
0180
0180
0180
0180
0180
0180
0180
0180
0180
0180
0180
0180
ENDCHAR
STARTCHAR BOX DRAWINGS VERTICAL DOUBLE AND LEFT SINGLE
ENCODING 182
SWIDTH 500 0
DWIDTH 16 0
BBX 16 32 0 -6
BITMAP
0660
0660
0660
0660
0660
0660
0660
0660
0660
0660
0660
0660
0660
0660
0660
FE60
FE60
0660
0660
0660
0660
0660
0660
0660
0660
0660
0660
0660
0660
0660
0660
0660
ENDCHAR
STARTCHAR BOX DRAWINGS DOWN DOUBLE AND LEFT SINGLE
ENCODING 183
SWIDTH 500 0
DWIDTH 16 0
BBX 16 32 0 -6
BITMAP
0000
0000
0000
0000
0000
0000
0000
0000
0000
0000
0000
0000
0000
0000
0000
FFE0
FFE0
0660
0660
0660
0660
0660
0660
0660
0660
0660
0660
0660
0660
0660
0660
0660
ENDCHAR
STARTCHAR BOX DRAWINGS DOWN SINGLE AND LEFT DOUBLE
ENCODING 184
SWIDTH 500 0
DWIDTH 16 0
BBX 16 32 0 -6
BITMAP
0000
0000
0000
0000
0000
0000
0000
0000
0000
0000
0000
0000
0000
FF80
FF80
0180
0180
FF80
FF80
0180
0180
0180
0180
0180
0180
0180
0180
0180
0180
0180
0180
0180
ENDCHAR
STARTCHAR BOX DRAWINGS DOUBLE VERTICAL AND LEFT
ENCODING 185
SWIDTH 500 0
DWIDTH 16 0
BBX 16 32 0 -6
BITMAP
0660
0660
0660
0660
0660
0660
0660
0660
0660
0660
0660
0660
0660
FE60
FE60
0060
0060
FE60
FE60
0660
0660
0660
0660
0660
0660
0660
0660
0660
0660
0660
0660
0660
ENDCHAR
STARTCHAR BOX DRAWINGS DOUBLE VERTICAL
ENCODING 186
SWIDTH 500 0
DWIDTH 16 0
BBX 16 32 0 -6
BITMAP
0660
0660
0660
0660
0660
0660
0660
0660
0660
0660
0660
0660
0660
0660
0660
0660
0660
0660
0660
0660
0660
0660
0660
0660
0660
0660
0660
0660
0660
0660
0660
0660
ENDCHAR
STARTCHAR BOX DRAWINGS DOUBLE DOWN AND LEFT
ENCODING 187
SWIDTH 500 0
DWIDTH 16 0
BBX 16 32 0 -6
BITMAP
0000
0000
0000
0000
0000
0000
0000
0000
0000
0000
0000
0000
0000
FFE0
FFE0
0060
0060
FE60
FE60
0660
0660
0660
0660
0660
0660
0660
0660
0660
0660
0660
0660
0660
ENDCHAR
STARTCHAR BOX DRAWINGS DOUBLE UP AND LEFT
ENCODING 188
SWIDTH 500 0
DWIDTH 16 0
BBX 16 32 0 -6
BITMAP
0660
0660
0660
0660
0660
0660
0660
0660
0660
0660
0660
0660
0660
FE60
FE60
0060
0060
FFE0
FFE0
0000
0000
0000
0000
0000
0000
0000
0000
0000
0000
0000
0000
0000
ENDCHAR
STARTCHAR BOX DRAWINGS UP DOUBLE AND LEFT SINGLE
ENCODING 189
SWIDTH 500 0
DWIDTH 16 0
BBX 16 32 0 -6
BITMAP
0660
0660
0660
0660
0660
0660
0660
0660
0660
0660
0660
0660
0660
0660
0660
FFE0
FFE0
0000
0000
0000
0000
0000
0000
0000
0000
0000
0000
0000
0000
0000
0000
0000
ENDCHAR
STARTCHAR BOX DRAWINGS UP SINGLE AND LEFT DOUBLE
ENCODING 190
SWIDTH 500 0
DWIDTH 16 0
BBX 16 32 0 -6
BITMAP
0180
0180
0180
0180
0180
0180
0180
0180
0180
0180
0180
0180
0180
FF80
FF80
0180
0180
FF80
FF80
0000
0000
0000
0000
0000
0000
0000
0000
0000
0000
0000
0000
0000
ENDCHAR
STARTCHAR BOX DRAWINGS LIGHT DOWN AND LEFT
ENCODING 191
SWIDTH 500 0
DWIDTH 16 0
BBX 16 32 0 -6
BITMAP
0000
0000
0000
0000
0000
0000
0000
0000
0000
0000
0000
0000
0000
0000
0000
FF80
FF80
0180
0180
0180
0180
0180
0180
0180
0180
0180
0180
0180
0180
0180
0180
0180
ENDCHAR
STARTCHAR BOX DRAWINGS LIGHT UP AND RIGHT
ENCODING 192
SWIDTH 500 0
DWIDTH 16 0
BBX 16 32 0 -6
BITMAP
0180
0180
0180
0180
0180
0180
0180
0180
0180
0180
0180
0180
0180
0180
0180
01FF
01FF
0000
0000
0000
0000
0000
0000
0000
0000
0000
0000
0000
0000
0000
0000
0000
ENDCHAR
STARTCHAR BOX DRAWINGS LIGHT UP AND HORIZONTAL
ENCODING 193
SWIDTH 500 0
DWIDTH 16 0
BBX 16 32 0 -6
BITMAP
0180
0180
0180
0180
0180
0180
0180
0180
0180
0180
0180
0180
0180
0180
0180
FFFF
FFFF
0000
0000
0000
0000
0000
0000
0000
0000
0000
0000
0000
0000
0000
0000
0000
ENDCHAR
STARTCHAR BOX DRAWINGS LIGHT DOWN AND HORIZONTAL
ENCODING 194
SWIDTH 500 0
DWIDTH 16 0
BBX 16 32 0 -6
BITMAP
0000
0000
0000
0000
0000
0000
0000
0000
0000
0000
0000
0000
0000
0000
0000
FFFF
FFFF
0180
0180
0180
0180
0180
0180
0180
0180
0180
0180
0180
0180
0180
0180
0180
ENDCHAR
STARTCHAR BOX DRAWINGS LIGHT VERTICAL AND RIGHT
ENCODING 195
SWIDTH 500 0
DWIDTH 16 0
BBX 16 32 0 -6
BITMAP
0180
0180
0180
0180
0180
0180
0180
0180
0180
0180
0180
0180
0180
0180
0180
01FF
01FF
0180
0180
0180
0180
0180
0180
0180
0180
0180
0180
0180
0180
0180
0180
0180
ENDCHAR
STARTCHAR BOX DRAWINGS LIGHT HORIZONTAL
ENCODING 196
SWIDTH 500 0
DWIDTH 16 0
BBX 16 32 0 -6
BITMAP
0000
0000
0000
0000
0000
0000
0000
0000
0000
0000
0000
0000
0000
0000
0000
FFFF
FFFF
0000
0000
0000
0000
0000
0000
0000
0000
0000
0000
0000
0000
0000
0000
0000
ENDCHAR
STARTCHAR BOX DRAWINGS LIGHT VERTICAL AND HORIZONTAL
ENCODING 197
SWIDTH 500 0
DWIDTH 16 0
BBX 16 32 0 -6
BITMAP
0180
0180
0180
0180
0180
0180
0180
0180
0180
0180
0180
0180
0180
0180
0180
FFFF
FFFF
0180
0180
0180
0180
0180
0180
0180
0180
0180
0180
0180
0180
0180
0180
0180
ENDCHAR
STARTCHAR BOX DRAWINGS VERTICAL SINGLE AND RIGHT DOUBLE
ENCODING 198
SWIDTH 500 0
DWIDTH 16 0
BBX 16 32 0 -6
BITMAP
0180
0180
0180
0180
0180
0180
0180
0180
0180
0180
0180
0180
0180
01FF
01FF
0180
0180
01FF
01FF
0180
0180
0180
0180
0180
0180
0180
0180
0180
0180
0180
0180
0180
ENDCHAR
STARTCHAR BOX DRAWINGS VERTICAL DOUBLE AND RIGHT SINGLE
ENCODING 199
SWIDTH 500 0
DWIDTH 16 0
BBX 16 32 0 -6
BITMAP
0660
0660
0660
0660
0660
0660
0660
0660
0660
0660
0660
0660
0660
0660
0660
067F
067F
0660
0660
0660
0660
0660
0660
0660
0660
0660
0660
0660
0660
0660
0660
0660
ENDCHAR
STARTCHAR BOX DRAWINGS DOUBLE UP AND RIGHT
ENCODING 200
SWIDTH 500 0
DWIDTH 16 0
BBX 16 32 0 -6
BITMAP
0660
0660
0660
0660
0660
0660
0660
0660
0660
0660
0660
0660
0660
067F
067F
0600
0600
07FF
07FF
0000
0000
0000
0000
0000
0000
0000
0000
0000
0000
0000
0000
0000
ENDCHAR
STARTCHAR BOX DRAWINGS DOUBLE DOWN AND RIGHT
ENCODING 201
SWIDTH 500 0
DWIDTH 16 0
BBX 16 32 0 -6
BITMAP
0000
0000
0000
0000
0000
0000
0000
0000
0000
0000
0000
0000
0000
07FF
07FF
0600
0600
067F
067F
0660
0660
0660
0660
0660
0660
0660
0660
0660
0660
0660
0660
0660
ENDCHAR
STARTCHAR BOX DRAWINGS DOUBLE UP AND HORIZONTAL
ENCODING 202
SWIDTH 500 0
DWIDTH 16 0
BBX 16 32 0 -6
BITMAP
0660
0660
0660
0660
0660
0660
0660
0660
0660
0660
0660
0660
0660
FE7F
FE7F
0000
0000
FFFF
FFFF
0000
0000
0000
0000
0000
0000
0000
0000
0000
0000
0000
0000
0000
ENDCHAR
STARTCHAR BOX DRAWINGS DOUBLE DOWN AND HORIZONTAL
ENCODING 203
SWIDTH 500 0
DWIDTH 16 0
BBX 16 32 0 -6
BITMAP
0000
0000
0000
0000
0000
0000
0000
0000
0000
0000
0000
0000
0000
FFFF
FFFF
0000
0000
FE7F
FE7F
0660
0660
0660
0660
0660
0660
0660
0660
0660
0660
0660
0660
0660
ENDCHAR
STARTCHAR BOX DRAWINGS DOUBLE VERTICAL AND RIGHT
ENCODING 204
SWIDTH 500 0
DWIDTH 16 0
BBX 16 32 0 -6
BITMAP
0660
0660
0660
0660
0660
0660
0660
0660
0660
0660
0660
0660
0660
067F
067F
0600
0600
067F
067F
0660
0660
0660
0660
0660
0660
0660
0660
0660
0660
0660
0660
0660
ENDCHAR
STARTCHAR BOX DRAWINGS DOUBLE HORIZONTAL
ENCODING 205
SWIDTH 500 0
DWIDTH 16 0
BBX 16 32 0 -6
BITMAP
0000
0000
0000
0000
0000
0000
0000
0000
0000
0000
0000
0000
0000
FFFF
FFFF
0000
0000
FFFF
FFFF
0000
0000
0000
0000
0000
0000
0000
0000
0000
0000
0000
0000
0000
ENDCHAR
STARTCHAR BOX DRAWINGS DOUBLE VERTICAL AND HORIZONTAL
ENCODING 206
SWIDTH 500 0
DWIDTH 16 0
BBX 16 32 0 -6
BITMAP
0660
0660
0660
0660
0660
0660
0660
0660
0660
0660
0660
0660
0660
FE7F
FE7F
0000
0000
FE7F
FE7F
0660
0660
0660
0660
0660
0660
0660
0660
0660
0660
0660
0660
0660
ENDCHAR
STARTCHAR BOX DRAWINGS UP SINGLE AND HORIZONTAL DOUBLE
ENCODING 207
SWIDTH 500 0
DWIDTH 16 0
BBX 16 32 0 -6
BITMAP
0180
0180
0180
0180
0180
0180
0180
0180
0180
0180
0180
0180
0180
FFFF
FFFF
0000
0000
FFFF
FFFF
0000
0000
0000
0000
0000
0000
0000
0000
0000
0000
0000
0000
0000
ENDCHAR
STARTCHAR BOX DRAWINGS UP DOUBLE AND HORIZONTAL SINGLE
ENCODING 208
SWIDTH 500 0
DWIDTH 16 0
BBX 16 32 0 -6
BITMAP
0660
0660
0660
0660
0660
0660
0660
0660
0660
0660
0660
0660
0660
0660
0660
FFFF
FFFF
0000
0000
0000
0000
0000
0000
0000
0000
0000
0000
0000
0000
0000
0000
0000
ENDCHAR
STARTCHAR BOX DRAWINGS DOWN SINGLE AND HORIZONTAL DOUBLE
ENCODING 209
SWIDTH 500 0
DWIDTH 16 0
BBX 16 32 0 -6
BITMAP
0000
0000
0000
0000
0000
0000
0000
0000
0000
0000
0000
0000
0000
FFFF
FFFF
0000
0000
FFFF
FFFF
0180
0180
0180
0180
0180
0180
0180
0180
0180
0180
0180
0180
0180
ENDCHAR
STARTCHAR BOX DRAWINGS DOWN DOUBLE AND HORIZONTAL SINGLE
ENCODING 210
SWIDTH 500 0
DWIDTH 16 0
BBX 16 32 0 -6
BITMAP
0000
0000
0000
0000
0000
0000
0000
0000
0000
0000
0000
0000
0000
0000
0000
FFFF
FFFF
0660
0660
0660
0660
0660
0660
0660
0660
0660
0660
0660
0660
0660
0660
0660
ENDCHAR
STARTCHAR BOX DRAWINGS UP DOUBLE AND RIGHT SINGLE
ENCODING 211
SWIDTH 500 0
DWIDTH 16 0
BBX 16 32 0 -6
BITMAP
0660
0660
0660
0660
0660
0660
0660
0660
0660
0660
0660
0660
0660
0660
0660
07FF
07FF
0000
0000
0000
0000
0000
0000
0000
0000
0000
0000
0000
0000
0000
0000
0000
ENDCHAR
STARTCHAR BOX DRAWINGS UP SINGLE AND RIGHT DOUBLE
ENCODING 212
SWIDTH 500 0
DWIDTH 16 0
BBX 16 32 0 -6
BITMAP
0180
0180
0180
0180
0180
0180
0180
0180
0180
0180
0180
0180
0180
01FF
01FF
0180
0180
01FF
01FF
0000
0000
0000
0000
0000
0000
0000
0000
0000
0000
0000
0000
0000
ENDCHAR
STARTCHAR BOX DRAWINGS DOWN SINGLE AND RIGHT DOUBLE
ENCODING 213
SWIDTH 500 0
DWIDTH 16 0
BBX 16 32 0 -6
BITMAP
0000
0000
0000
0000
0000
0000
0000
0000
0000
0000
0000
0000
0000
01FF
01FF
0180
0180
01FF
01FF
0180
0180
0180
0180
0180
0180
0180
0180
0180
0180
0180
0180
0180
ENDCHAR
STARTCHAR BOX DRAWINGS DOWN DOUBLE AND RIGHT SINGLE
ENCODING 214
SWIDTH 500 0
DWIDTH 16 0
BBX 16 32 0 -6
BITMAP
0000
0000
0000
0000
0000
0000
0000
0000
0000
0000
0000
0000
0000
0000
0000
07FF
07FF
0660
0660
0660
0660
0660
0660
0660
0660
0660
0660
0660
0660
0660
0660
0660
ENDCHAR
STARTCHAR BOX DRAWINGS VERTICAL DOUBLE AND HORIZONTAL SINGLE
ENCODING 215
SWIDTH 500 0
DWIDTH 16 0
BBX 16 32 0 -6
BITMAP
0660
0660
0660
0660
0660
0660
0660
0660
0660
0660
0660
0660
0660
0660
0660
FFFF
FFFF
0660
0660
0660
0660
0660
0660
0660
0660
0660
0660
0660
0660
0660
0660
0660
ENDCHAR
STARTCHAR BOX DRAWINGS VERTICAL SINGLE AND HORIZONTAL DOUBLE
ENCODING 216
SWIDTH 500 0
DWIDTH 16 0
BBX 16 32 0 -6
BITMAP
0180
0180
0180
0180
0180
0180
0180
0180
0180
0180
0180
0180
0180
FFFF
FFFF
0180
0180
FFFF
FFFF
0180
0180
0180
0180
0180
0180
0180
0180
0180
0180
0180
0180
0180
ENDCHAR
STARTCHAR BOX DRAWINGS LIGHT UP AND LEFT
ENCODING 217
SWIDTH 500 0
DWIDTH 16 0
BBX 16 32 0 -6
BITMAP
0180
0180
0180
0180
0180
0180
0180
0180
0180
0180
0180
0180
0180
0180
0180
FF80
FF80
0000
0000
0000
0000
0000
0000
0000
0000
0000
0000
0000
0000
0000
0000
0000
ENDCHAR
STARTCHAR BOX DRAWINGS LIGHT DOWN AND RIGHT
ENCODING 218
SWIDTH 500 0
DWIDTH 16 0
BBX 16 32 0 -6
BITMAP
0000
0000
0000
0000
0000
0000
0000
0000
0000
0000
0000
0000
0000
0000
0000
01FF
01FF
0180
0180
0180
0180
0180
0180
0180
0180
0180
0180
0180
0180
0180
0180
0180
ENDCHAR
STARTCHAR FULL BLOCK
ENCODING 219
SWIDTH 500 0
DWIDTH 16 0
BBX 16 32 0 -6
BITMAP
FFFF
FFFF
FFFF
FFFF
FFFF
FFFF
FFFF
FFFF
FFFF
FFFF
FFFF
FFFF
FFFF
FFFF
FFFF
FFFF
FFFF
FFFF
FFFF
FFFF
FFFF
FFFF
FFFF
FFFF
FFFF
FFFF
FFFF
FFFF
FFFF
FFFF
FFFF
FFFF
ENDCHAR
STARTCHAR LOWER HALF BLOCK
ENCODING 220
SWIDTH 500 0
DWIDTH 16 0
BBX 16 32 0 -6
BITMAP
0000
0000
0000
0000
0000
0000
0000
0000
0000
0000
0000
0000
0000
0000
0000
0000
FFFF
FFFF
FFFF
FFFF
FFFF
FFFF
FFFF
FFFF
FFFF
FFFF
FFFF
FFFF
FFFF
FFFF
FFFF
FFFF
ENDCHAR
STARTCHAR LEFT HALF BLOCK
ENCODING 221
SWIDTH 500 0
DWIDTH 16 0
BBX 16 32 0 -6
BITMAP
FF00
FF00
FF00
FF00
FF00
FF00
FF00
FF00
FF00
FF00
FF00
FF00
FF00
FF00
FF00
FF00
FF00
FF00
FF00
FF00
FF00
FF00
FF00
FF00
FF00
FF00
FF00
FF00
FF00
FF00
FF00
FF00
ENDCHAR
STARTCHAR RIGHT HALF BLOCK
ENCODING 222
SWIDTH 500 0
DWIDTH 16 0
BBX 16 32 0 -6
BITMAP
00FF
00FF
00FF
00FF
00FF
00FF
00FF
00FF
00FF
00FF
00FF
00FF
00FF
00FF
00FF
00FF
00FF
00FF
00FF
00FF
00FF
00FF
00FF
00FF
00FF
00FF
00FF
00FF
00FF
00FF
00FF
00FF
ENDCHAR
STARTCHAR UPPER HALF BLOCK
ENCODING 223
SWIDTH 500 0
DWIDTH 16 0
BBX 16 32 0 -6
BITMAP
FFFF
FFFF
FFFF
FFFF
FFFF
FFFF
FFFF
FFFF
FFFF
FFFF
FFFF
FFFF
FFFF
FFFF
FFFF
FFFF
0000
0000
0000
0000
0000
0000
0000
0000
0000
0000
0000
0000
0000
0000
0000
0000
ENDCHAR
STARTCHAR GREEK SMALL LETTER ALPHA
ENCODING 224
SWIDTH 500 0
DWIDTH 16 0
BBX 16 32 0 -6
BITMAP
0000
0000
0000
0000
0000
0000
0000
0000
0000
0000
0000
0000
0F1C
1FBC
39F0
30E0
30C0
30C0
30C0
30C0
30C0
30C0
30E0
39F0
1FBC
0F1C
0000
0000
0000
0000
0000
0000
ENDCHAR
STARTCHAR LATIN SMALL LETTER SHARP S
ENCODING 225
SWIDTH 500 0
DWIDTH 16 0
BBX 16 32 0 -6
BITMAP
0000
0000
0000
0000
0000
0000
0FC0
1FE0
3870
3030
3030
3030
3030
3070
30E0
33C0
33F0
3078
301C
300C
300C
300C
360C
371C
33F8
31F0
0000
0000
0000
0000
0000
0000
ENDCHAR
STARTCHAR GREEK CAPITAL LETTER GAMMA
ENCODING 226
SWIDTH 500 0
DWIDTH 16 0
BBX 16 32 0 -6
BITMAP
0000
0000
0000
0000
0000
0000
3FFC
3FFC
300C
300C
3000
3000
3000
3000
3000
3000
3000
3000
3000
3000
3000
3000
3000
3000
3000
3000
0000
0000
0000
0000
0000
0000
ENDCHAR
STARTCHAR GREEK SMALL LETTER PI
ENCODING 227
SWIDTH 500 0
DWIDTH 16 0
BBX 16 32 0 -6
BITMAP
0000
0000
0000
0000
0000
0000
0000
0000
0000
0000
3FFC
3FFC
0C30
0C30
0C30
0C30
0C30
0C30
0C30
0C30
0C30
0C30
0C30
0C30
0000
0000
0000
0000
0000
0000
0000
0000
ENDCHAR
STARTCHAR GREEK CAPITAL LETTER SIGMA
ENCODING 228
SWIDTH 500 0
DWIDTH 16 0
BBX 16 32 0 -6
BITMAP
0000
0000
0000
0000
0000
0000
3FFC
3FFC
300C
380C
1C00
0E00
0700
0380
01C0
00C0
00C0
01C0
0380
0700
0E00
1C00
380C
300C
3FFC
3FFC
0000
0000
0000
0000
0000
0000
ENDCHAR
STARTCHAR GREEK SMALL LETTER SIGMA
ENCODING 229
SWIDTH 500 0
DWIDTH 16 0
BBX 16 32 0 -6
BITMAP
0000
0000
0000
0000
0000
0000
0000
0000
0000
0000
0000
0000
0FFC
1FFC
38C0
30C0
30C0
30C0
30C0
30C0
30C0
30C0
30C0
39C0
1F80
0F00
0000
0000
0000
0000
0000
0000
ENDCHAR
STARTCHAR MICRO SIGN
ENCODING 230
SWIDTH 500 0
DWIDTH 16 0
BBX 16 32 0 -6
BITMAP
0000
0000
0000
0000
0000
0000
0000
0000
0000
0000
0000
0000
3030
3030
3030
3030
3030
3030
3030
3030
3030
3030
3030
3878
3FFE
37CE
3000
3000
3000
3000
3000
3000
ENDCHAR
STARTCHAR GREEK SMALL LETTER TAU
ENCODING 231
SWIDTH 500 0
DWIDTH 16 0
BBX 16 32 0 -6
BITMAP
0000
0000
0000
0000
0000
0000
0000
0000
0000
0000
0000
0000
3FFC
3FFC
0180
0180
0180
0180
0180
0180
0180
0180
0180
01C0
00F0
0070
0000
0000
0000
0000
0000
0000
ENDCHAR
STARTCHAR GREEK CAPITAL LETTER PHI
ENCODING 232
SWIDTH 500 0
DWIDTH 16 0
BBX 16 32 0 -6
BITMAP
0000
0000
0000
0000
0000
0000
0180
0180
0FF0
1FF8
399C
318C
318C
318C
318C
318C
318C
318C
318C
318C
318C
399C
1FF8
0FF0
0180
0180
0000
0000
0000
0000
0000
0000
ENDCHAR
STARTCHAR GREEK CAPITAL LETTER THETA
ENCODING 233
SWIDTH 500 0
DWIDTH 16 0
BBX 16 32 0 -6
BITMAP
0000
0000
0000
0000
0000
0000
03C0
0FF0
1C38
1818
300C
300C
300C
300C
3FFC
3FFC
300C
300C
300C
300C
300C
300C
1818
1C38
0FF0
03C0
0000
0000
0000
0000
0000
0000
ENDCHAR
STARTCHAR GREEK CAPITAL LETTER OMEGA
ENCODING 234
SWIDTH 500 0
DWIDTH 16 0
BBX 16 32 0 -6
BITMAP
0000
0000
0000
0000
0000
0000
03C0
0FF0
1C38
1818
300C
300C
300C
300C
300C
300C
300C
300C
300C
381C
1C38
0C30
0C30
0C30
3C3C
3C3C
0000
0000
0000
0000
0000
0000
ENDCHAR
STARTCHAR GREEK SMALL LETTER DELTA
ENCODING 235
SWIDTH 500 0
DWIDTH 16 0
BBX 16 32 0 -6
BITMAP
0000
0000
0000
0000
0000
0000
03FC
07FC
0E00
0E00
0700
0380
01C0
00E0
0FF0
1FF8
381C
300C
300C
300C
300C
300C
300C
381C
1FF8
0FF0
0000
0000
0000
0000
0000
0000
ENDCHAR
STARTCHAR INFINITY
ENCODING 236
SWIDTH 500 0
DWIDTH 16 0
BBX 16 32 0 -6
BITMAP
0000
0000
0000
0000
0000
0000
0000
0000
0000
0000
0000
1E78
3FFC
73CE
6186
6186
6186
6186
73CE
3FFC
1E78
0000
0000
0000
0000
0000
0000
0000
0000
0000
0000
0000
ENDCHAR
STARTCHAR GREEK SMALL LETTER PHI
ENCODING 237
SWIDTH 500 0
DWIDTH 16 0
BBX 16 32 0 -6
BITMAP
0000
0000
0000
0000
0000
0000
0000
0000
0000
0000
0000
0000
0C70
1CF8
39DC
318C
318C
318C
318C
318C
318C
318C
318C
399C
1FF8
0FF0
0180
0180
0180
0180
0000
0000
ENDCHAR
STARTCHAR GREEK SMALL LETTER EPSILON
ENCODING 238
SWIDTH 500 0
DWIDTH 16 0
BBX 16 32 0 -6
BITMAP
0000
0000
0000
0000
0000
0000
0000
0000
0000
0000
0000
0000
0FF0
1FF8
381C
300C
3000
3800
1F00
1F00
3800
3000
300C
381C
1FF8
0FF0
0000
0000
0000
0000
0000
0000
ENDCHAR
STARTCHAR INTERSECTION
ENCODING 239
SWIDTH 500 0
DWIDTH 16 0
BBX 16 32 0 -6
BITMAP
0000
0000
0000
0000
0000
0000
0000
0000
0FF0
1FF8
381C
300C
300C
300C
300C
300C
300C
300C
300C
300C
300C
300C
300C
300C
300C
300C
0000
0000
0000
0000
0000
0000
ENDCHAR
STARTCHAR IDENTICAL TO
ENCODING 240
SWIDTH 500 0
DWIDTH 16 0
BBX 16 32 0 -6
BITMAP
0000
0000
0000
0000
0000
0000
0000
0000
0000
3FFC
3FFC
0000
0000
0000
0000
3FFC
3FFC
0000
0000
0000
0000
3FFC
3FFC
0000
0000
0000
0000
0000
0000
0000
0000
0000
ENDCHAR
STARTCHAR PLUS-MINUS SIGN
ENCODING 241
SWIDTH 500 0
DWIDTH 16 0
BBX 16 32 0 -6
BITMAP
0000
0000
0000
0000
0000
0000
0000
0000
0000
0000
0180
0180
0180
0180
1FF8
1FF8
0180
0180
0180
0180
0000
0000
1FF8
1FF8
0000
0000
0000
0000
0000
0000
0000
0000
ENDCHAR
STARTCHAR GREATER-THAN OR EQUAL TO
ENCODING 242
SWIDTH 500 0
DWIDTH 16 0
BBX 16 32 0 -6
BITMAP
0000
0000
0000
0000
0000
0000
0000
0000
0000
0000
0000
0000
0700
0380
01C0
00E0
0070
0070
00E0
01C0
0380
0700
0000
0000
07F0
07F0
0000
0000
0000
0000
0000
0000
ENDCHAR
STARTCHAR LESS-THAN OR EQUAL TO
ENCODING 243
SWIDTH 500 0
DWIDTH 16 0
BBX 16 32 0 -6
BITMAP
0000
0000
0000
0000
0000
0000
0000
0000
0000
0000
0000
0000
00E0
01C0
0380
0700
0E00
0E00
0700
0380
01C0
00E0
0000
0000
0FE0
0FE0
0000
0000
0000
0000
0000
0000
ENDCHAR
STARTCHAR TOP HALF INTEGRAL
ENCODING 244
SWIDTH 500 0
DWIDTH 16 0
BBX 16 32 0 -6
BITMAP
0000
0000
0000
0000
00F0
01F8
039C
030C
030C
030C
0300
0300
0300
0300
0300
0300
0300
0300
0300
0300
0300
0300
0300
0300
0300
0300
0300
0300
0300
0300
0300
0300
ENDCHAR
STARTCHAR BOTTOM HALF INTEGRAL
ENCODING 245
SWIDTH 500 0
DWIDTH 16 0
BBX 16 32 0 -6
BITMAP
0000
0000
00C0
00C0
00C0
00C0
00C0
00C0
00C0
00C0
00C0
00C0
00C0
00C0
00C0
00C0
00C0
00C0
00C0
00C0
30C0
30C0
30C0
39C0
1F80
0F00
0000
0000
0000
0000
0000
0000
ENDCHAR
STARTCHAR DIVISION SIGN
ENCODING 246
SWIDTH 500 0
DWIDTH 16 0
BBX 16 32 0 -6
BITMAP
0000
0000
0000
0000
0000
0000
0000
0000
0000
0000
0000
0180
0180
0180
0000
0000
1FF8
1FF8
0000
0000
0180
0180
0180
0000
0000
0000
0000
0000
0000
0000
0000
0000
ENDCHAR
STARTCHAR ALMOST EQUAL TO
ENCODING 247
SWIDTH 500 0
DWIDTH 16 0
BBX 16 32 0 -6
BITMAP
0000
0000
0000
0000
0000
0000
0000
0000
0000
0000
0000
0F0C
1F9C
39F8
30F0
0000
0000
0F0C
1F9C
39F8
30F0
0000
0000
0000
0000
0000
0000
0000
0000
0000
0000
0000
ENDCHAR
STARTCHAR DEGREE SIGN
ENCODING 248
SWIDTH 500 0
DWIDTH 16 0
BBX 16 32 0 -6
BITMAP
0000
0000
0000
0000
0000
03C0
07E0
0E70
0C30
0C30
0C30
0E70
07E0
03C0
0000
0000
0000
0000
0000
0000
0000
0000
0000
0000
0000
0000
0000
0000
0000
0000
0000
0000
ENDCHAR
STARTCHAR BULLET OPERATOR
ENCODING 249
SWIDTH 500 0
DWIDTH 16 0
BBX 16 32 0 -6
BITMAP
0000
0000
0000
0000
0000
0000
0000
0000
0000
0000
0000
0000
0000
03C0
07E0
07E0
07E0
07E0
03C0
0000
0000
0000
0000
0000
0000
0000
0000
0000
0000
0000
0000
0000
ENDCHAR
STARTCHAR MIDDLE DOT
ENCODING 250
SWIDTH 500 0
DWIDTH 16 0
BBX 16 32 0 -6
BITMAP
0000
0000
0000
0000
0000
0000
0000
0000
0000
0000
0000
0000
0000
0000
0180
0180
0180
0000
0000
0000
0000
0000
0000
0000
0000
0000
0000
0000
0000
0000
0000
0000
ENDCHAR
STARTCHAR SQUARE ROOT
ENCODING 251
SWIDTH 500 0
DWIDTH 16 0
BBX 16 32 0 -6
BITMAP
0000
0000
0000
0000
007E
007E
0060
0060
0060
0060
0060
0060
0060
0060
0060
0060
0060
6060
7060
3860
1C60
0E60
0760
03E0
01E0
00E0
0000
0000
0000
0000
0000
0000
ENDCHAR
STARTCHAR SUPERSCRIPT LATIN SMALL LETTER N
ENCODING 252
SWIDTH 500 0
DWIDTH 16 0
BBX 16 32 0 -6
BITMAP
0000
0000
0000
0000
0000
0FC0
0FE0
0C70
0C30
0C30
0C30
0C30
0C30
0C30
0C30
0C30
0C30
0000
0000
0000
0000
0000
0000
0000
0000
0000
0000
0000
0000
0000
0000
0000
ENDCHAR
STARTCHAR SUPERSCRIPT TWO
ENCODING 253
SWIDTH 500 0
DWIDTH 16 0
BBX 16 32 0 -6
BITMAP
0000
0000
0000
0000
0000
03C0
07E0
0C30
0030
0030
0060
00C0
0180
0300
0630
0FF0
0FF0
0000
0000
0000
0000
0000
0000
0000
0000
0000
0000
0000
0000
0000
0000
0000
ENDCHAR
STARTCHAR BLACK SQUARE
ENCODING 254
SWIDTH 500 0
DWIDTH 16 0
BBX 16 32 0 -6
BITMAP
0000
0000
0000
0000
0000
0000
0000
0000
3FF0
3FF0
3FF0
3FF0
3FF0
3FF0
3FF0
3FF0
3FF0
3FF0
3FF0
3FF0
3FF0
3FF0
0000
0000
0000
0000
0000
0000
0000
0000
0000
0000
ENDCHAR
STARTCHAR NO-BREAK SPACE
ENCODING 255
SWIDTH 500 0
DWIDTH 16 0
BBX 16 32 0 -6
BITMAP
0000
0000
0000
0000
0000
0000
0000
0000
0000
0000
0000
0000
0000
0000
0000
0000
0000
0000
0000
0000
0000
0000
0000
0000
0000
0000
0000
0000
0000
0000
0000
0000
ENDCHAR
ENDFONT
